%TF.GenerationSoftware,KiCad,Pcbnew,8.0.0*%
%TF.CreationDate,2024-03-27T17:07:57-03:00*%
%TF.ProjectId,primeiro,7072696d-6569-4726-9f2e-6b696361645f,rev?*%
%TF.SameCoordinates,Original*%
%TF.FileFunction,Legend,Top*%
%TF.FilePolarity,Positive*%
%FSLAX46Y46*%
G04 Gerber Fmt 4.6, Leading zero omitted, Abs format (unit mm)*
G04 Created by KiCad (PCBNEW 8.0.0) date 2024-03-27 17:07:57*
%MOMM*%
%LPD*%
G01*
G04 APERTURE LIST*
%ADD10C,0.150000*%
%ADD11C,0.120000*%
G04 APERTURE END LIST*
D10*
X182358333Y-36584819D02*
X182025000Y-36108628D01*
X181786905Y-36584819D02*
X181786905Y-35584819D01*
X181786905Y-35584819D02*
X182167857Y-35584819D01*
X182167857Y-35584819D02*
X182263095Y-35632438D01*
X182263095Y-35632438D02*
X182310714Y-35680057D01*
X182310714Y-35680057D02*
X182358333Y-35775295D01*
X182358333Y-35775295D02*
X182358333Y-35918152D01*
X182358333Y-35918152D02*
X182310714Y-36013390D01*
X182310714Y-36013390D02*
X182263095Y-36061009D01*
X182263095Y-36061009D02*
X182167857Y-36108628D01*
X182167857Y-36108628D02*
X181786905Y-36108628D01*
X182739286Y-35680057D02*
X182786905Y-35632438D01*
X182786905Y-35632438D02*
X182882143Y-35584819D01*
X182882143Y-35584819D02*
X183120238Y-35584819D01*
X183120238Y-35584819D02*
X183215476Y-35632438D01*
X183215476Y-35632438D02*
X183263095Y-35680057D01*
X183263095Y-35680057D02*
X183310714Y-35775295D01*
X183310714Y-35775295D02*
X183310714Y-35870533D01*
X183310714Y-35870533D02*
X183263095Y-36013390D01*
X183263095Y-36013390D02*
X182691667Y-36584819D01*
X182691667Y-36584819D02*
X183310714Y-36584819D01*
X164904761Y-73920057D02*
X164809523Y-73872438D01*
X164809523Y-73872438D02*
X164714285Y-73777200D01*
X164714285Y-73777200D02*
X164571428Y-73634342D01*
X164571428Y-73634342D02*
X164476190Y-73586723D01*
X164476190Y-73586723D02*
X164380952Y-73586723D01*
X164428571Y-73824819D02*
X164333333Y-73777200D01*
X164333333Y-73777200D02*
X164238095Y-73681961D01*
X164238095Y-73681961D02*
X164190476Y-73491485D01*
X164190476Y-73491485D02*
X164190476Y-73158152D01*
X164190476Y-73158152D02*
X164238095Y-72967676D01*
X164238095Y-72967676D02*
X164333333Y-72872438D01*
X164333333Y-72872438D02*
X164428571Y-72824819D01*
X164428571Y-72824819D02*
X164619047Y-72824819D01*
X164619047Y-72824819D02*
X164714285Y-72872438D01*
X164714285Y-72872438D02*
X164809523Y-72967676D01*
X164809523Y-72967676D02*
X164857142Y-73158152D01*
X164857142Y-73158152D02*
X164857142Y-73491485D01*
X164857142Y-73491485D02*
X164809523Y-73681961D01*
X164809523Y-73681961D02*
X164714285Y-73777200D01*
X164714285Y-73777200D02*
X164619047Y-73824819D01*
X164619047Y-73824819D02*
X164428571Y-73824819D01*
X165809523Y-73824819D02*
X165238095Y-73824819D01*
X165523809Y-73824819D02*
X165523809Y-72824819D01*
X165523809Y-72824819D02*
X165428571Y-72967676D01*
X165428571Y-72967676D02*
X165333333Y-73062914D01*
X165333333Y-73062914D02*
X165238095Y-73110533D01*
X129053095Y-82239819D02*
X129053095Y-83049342D01*
X129053095Y-83049342D02*
X129100714Y-83144580D01*
X129100714Y-83144580D02*
X129148333Y-83192200D01*
X129148333Y-83192200D02*
X129243571Y-83239819D01*
X129243571Y-83239819D02*
X129434047Y-83239819D01*
X129434047Y-83239819D02*
X129529285Y-83192200D01*
X129529285Y-83192200D02*
X129576904Y-83144580D01*
X129576904Y-83144580D02*
X129624523Y-83049342D01*
X129624523Y-83049342D02*
X129624523Y-82239819D01*
X130053095Y-82335057D02*
X130100714Y-82287438D01*
X130100714Y-82287438D02*
X130195952Y-82239819D01*
X130195952Y-82239819D02*
X130434047Y-82239819D01*
X130434047Y-82239819D02*
X130529285Y-82287438D01*
X130529285Y-82287438D02*
X130576904Y-82335057D01*
X130576904Y-82335057D02*
X130624523Y-82430295D01*
X130624523Y-82430295D02*
X130624523Y-82525533D01*
X130624523Y-82525533D02*
X130576904Y-82668390D01*
X130576904Y-82668390D02*
X130005476Y-83239819D01*
X130005476Y-83239819D02*
X130624523Y-83239819D01*
X152617998Y-83275868D02*
X152537185Y-83302805D01*
X152537185Y-83302805D02*
X152456373Y-83383618D01*
X152456373Y-83383618D02*
X152402498Y-83491367D01*
X152402498Y-83491367D02*
X152402498Y-83599117D01*
X152402498Y-83599117D02*
X152429436Y-83679929D01*
X152429436Y-83679929D02*
X152510248Y-83814616D01*
X152510248Y-83814616D02*
X152591060Y-83895428D01*
X152591060Y-83895428D02*
X152725747Y-83976241D01*
X152725747Y-83976241D02*
X152806560Y-84003178D01*
X152806560Y-84003178D02*
X152914309Y-84003178D01*
X152914309Y-84003178D02*
X153022059Y-83949303D01*
X153022059Y-83949303D02*
X153075934Y-83895428D01*
X153075934Y-83895428D02*
X153129808Y-83787679D01*
X153129808Y-83787679D02*
X153129808Y-83733804D01*
X153129808Y-83733804D02*
X152941247Y-83545242D01*
X152941247Y-83545242D02*
X152833497Y-83652992D01*
X153426120Y-83545242D02*
X152860434Y-82979557D01*
X152860434Y-82979557D02*
X153075934Y-82764057D01*
X153075934Y-82764057D02*
X153156746Y-82737120D01*
X153156746Y-82737120D02*
X153210621Y-82737120D01*
X153210621Y-82737120D02*
X153291433Y-82764057D01*
X153291433Y-82764057D02*
X153372245Y-82844870D01*
X153372245Y-82844870D02*
X153399182Y-82925682D01*
X153399182Y-82925682D02*
X153399182Y-82979557D01*
X153399182Y-82979557D02*
X153372245Y-83060369D01*
X153372245Y-83060369D02*
X153156746Y-83275868D01*
X153453057Y-82494683D02*
X153453057Y-82440809D01*
X153453057Y-82440809D02*
X153479995Y-82359996D01*
X153479995Y-82359996D02*
X153614682Y-82225309D01*
X153614682Y-82225309D02*
X153695494Y-82198372D01*
X153695494Y-82198372D02*
X153749369Y-82198372D01*
X153749369Y-82198372D02*
X153830181Y-82225309D01*
X153830181Y-82225309D02*
X153884056Y-82279184D01*
X153884056Y-82279184D02*
X153937930Y-82386934D01*
X153937930Y-82386934D02*
X153937930Y-83033431D01*
X153937930Y-83033431D02*
X154288117Y-82683245D01*
X153910993Y-81928998D02*
X154288117Y-81551874D01*
X154288117Y-81551874D02*
X154611366Y-82359996D01*
X142653651Y-84728710D02*
X142195716Y-84647898D01*
X142330403Y-85051959D02*
X141764717Y-84486274D01*
X141764717Y-84486274D02*
X141980216Y-84270775D01*
X141980216Y-84270775D02*
X142061029Y-84243837D01*
X142061029Y-84243837D02*
X142114903Y-84243837D01*
X142114903Y-84243837D02*
X142195716Y-84270775D01*
X142195716Y-84270775D02*
X142276528Y-84351587D01*
X142276528Y-84351587D02*
X142303465Y-84432399D01*
X142303465Y-84432399D02*
X142303465Y-84486274D01*
X142303465Y-84486274D02*
X142276528Y-84567086D01*
X142276528Y-84567086D02*
X142061029Y-84782585D01*
X142330403Y-83920588D02*
X142788338Y-84378524D01*
X142788338Y-84378524D02*
X142869151Y-84405462D01*
X142869151Y-84405462D02*
X142923025Y-84405462D01*
X142923025Y-84405462D02*
X143003838Y-84378524D01*
X143003838Y-84378524D02*
X143111587Y-84270775D01*
X143111587Y-84270775D02*
X143138525Y-84189962D01*
X143138525Y-84189962D02*
X143138525Y-84136088D01*
X143138525Y-84136088D02*
X143111587Y-84055275D01*
X143111587Y-84055275D02*
X142653651Y-83597340D01*
X143488711Y-83893651D02*
X142923025Y-83327966D01*
X142923025Y-83327966D02*
X143811959Y-83570402D01*
X143811959Y-83570402D02*
X143246274Y-83004717D01*
X115804998Y-92065868D02*
X115724185Y-92092805D01*
X115724185Y-92092805D02*
X115643373Y-92173618D01*
X115643373Y-92173618D02*
X115589498Y-92281367D01*
X115589498Y-92281367D02*
X115589498Y-92389117D01*
X115589498Y-92389117D02*
X115616436Y-92469929D01*
X115616436Y-92469929D02*
X115697248Y-92604616D01*
X115697248Y-92604616D02*
X115778060Y-92685428D01*
X115778060Y-92685428D02*
X115912747Y-92766241D01*
X115912747Y-92766241D02*
X115993560Y-92793178D01*
X115993560Y-92793178D02*
X116101309Y-92793178D01*
X116101309Y-92793178D02*
X116209059Y-92739303D01*
X116209059Y-92739303D02*
X116262934Y-92685428D01*
X116262934Y-92685428D02*
X116316808Y-92577679D01*
X116316808Y-92577679D02*
X116316808Y-92523804D01*
X116316808Y-92523804D02*
X116128247Y-92335242D01*
X116128247Y-92335242D02*
X116020497Y-92442992D01*
X116613120Y-92335242D02*
X116047434Y-91769557D01*
X116047434Y-91769557D02*
X116262934Y-91554057D01*
X116262934Y-91554057D02*
X116343746Y-91527120D01*
X116343746Y-91527120D02*
X116397621Y-91527120D01*
X116397621Y-91527120D02*
X116478433Y-91554057D01*
X116478433Y-91554057D02*
X116559245Y-91634870D01*
X116559245Y-91634870D02*
X116586182Y-91715682D01*
X116586182Y-91715682D02*
X116586182Y-91769557D01*
X116586182Y-91769557D02*
X116559245Y-91850369D01*
X116559245Y-91850369D02*
X116343746Y-92065868D01*
X117475117Y-91473245D02*
X117151868Y-91796494D01*
X117313492Y-91634870D02*
X116747807Y-91069184D01*
X116747807Y-91069184D02*
X116774744Y-91203871D01*
X116774744Y-91203871D02*
X116774744Y-91311621D01*
X116774744Y-91311621D02*
X116747807Y-91392433D01*
X117259618Y-90557373D02*
X117313492Y-90503499D01*
X117313492Y-90503499D02*
X117394305Y-90476561D01*
X117394305Y-90476561D02*
X117448179Y-90476561D01*
X117448179Y-90476561D02*
X117528992Y-90503499D01*
X117528992Y-90503499D02*
X117663679Y-90584311D01*
X117663679Y-90584311D02*
X117798366Y-90718998D01*
X117798366Y-90718998D02*
X117879178Y-90853685D01*
X117879178Y-90853685D02*
X117906115Y-90934497D01*
X117906115Y-90934497D02*
X117906115Y-90988372D01*
X117906115Y-90988372D02*
X117879178Y-91069184D01*
X117879178Y-91069184D02*
X117825303Y-91123059D01*
X117825303Y-91123059D02*
X117744491Y-91149996D01*
X117744491Y-91149996D02*
X117690616Y-91149996D01*
X117690616Y-91149996D02*
X117609804Y-91123059D01*
X117609804Y-91123059D02*
X117475117Y-91042247D01*
X117475117Y-91042247D02*
X117340430Y-90907560D01*
X117340430Y-90907560D02*
X117259618Y-90772873D01*
X117259618Y-90772873D02*
X117232680Y-90692060D01*
X117232680Y-90692060D02*
X117232680Y-90638186D01*
X117232680Y-90638186D02*
X117259618Y-90557373D01*
X116228372Y-61306494D02*
X116147560Y-61333431D01*
X116147560Y-61333431D02*
X116066748Y-61414243D01*
X116066748Y-61414243D02*
X116012873Y-61521993D01*
X116012873Y-61521993D02*
X116012873Y-61629742D01*
X116012873Y-61629742D02*
X116039810Y-61710555D01*
X116039810Y-61710555D02*
X116120623Y-61845242D01*
X116120623Y-61845242D02*
X116201435Y-61926054D01*
X116201435Y-61926054D02*
X116336122Y-62006866D01*
X116336122Y-62006866D02*
X116416934Y-62033803D01*
X116416934Y-62033803D02*
X116524684Y-62033803D01*
X116524684Y-62033803D02*
X116632433Y-61979929D01*
X116632433Y-61979929D02*
X116686308Y-61926054D01*
X116686308Y-61926054D02*
X116740183Y-61818304D01*
X116740183Y-61818304D02*
X116740183Y-61764429D01*
X116740183Y-61764429D02*
X116551621Y-61575868D01*
X116551621Y-61575868D02*
X116443871Y-61683617D01*
X117036494Y-61575868D02*
X116470809Y-61010182D01*
X116470809Y-61010182D02*
X116686308Y-60794683D01*
X116686308Y-60794683D02*
X116767120Y-60767746D01*
X116767120Y-60767746D02*
X116820995Y-60767746D01*
X116820995Y-60767746D02*
X116901807Y-60794683D01*
X116901807Y-60794683D02*
X116982619Y-60875495D01*
X116982619Y-60875495D02*
X117009557Y-60956307D01*
X117009557Y-60956307D02*
X117009557Y-61010182D01*
X117009557Y-61010182D02*
X116982619Y-61090994D01*
X116982619Y-61090994D02*
X116767120Y-61306494D01*
X117898491Y-60713871D02*
X117575242Y-61037120D01*
X117736867Y-60875495D02*
X117171181Y-60309810D01*
X117171181Y-60309810D02*
X117198119Y-60444497D01*
X117198119Y-60444497D02*
X117198119Y-60552246D01*
X117198119Y-60552246D02*
X117171181Y-60633059D01*
X115658998Y-97145868D02*
X115578185Y-97172805D01*
X115578185Y-97172805D02*
X115497373Y-97253618D01*
X115497373Y-97253618D02*
X115443498Y-97361367D01*
X115443498Y-97361367D02*
X115443498Y-97469117D01*
X115443498Y-97469117D02*
X115470436Y-97549929D01*
X115470436Y-97549929D02*
X115551248Y-97684616D01*
X115551248Y-97684616D02*
X115632060Y-97765428D01*
X115632060Y-97765428D02*
X115766747Y-97846241D01*
X115766747Y-97846241D02*
X115847560Y-97873178D01*
X115847560Y-97873178D02*
X115955309Y-97873178D01*
X115955309Y-97873178D02*
X116063059Y-97819303D01*
X116063059Y-97819303D02*
X116116934Y-97765428D01*
X116116934Y-97765428D02*
X116170808Y-97657679D01*
X116170808Y-97657679D02*
X116170808Y-97603804D01*
X116170808Y-97603804D02*
X115982247Y-97415242D01*
X115982247Y-97415242D02*
X115874497Y-97522992D01*
X116467120Y-97415242D02*
X115901434Y-96849557D01*
X115901434Y-96849557D02*
X116116934Y-96634057D01*
X116116934Y-96634057D02*
X116197746Y-96607120D01*
X116197746Y-96607120D02*
X116251621Y-96607120D01*
X116251621Y-96607120D02*
X116332433Y-96634057D01*
X116332433Y-96634057D02*
X116413245Y-96714870D01*
X116413245Y-96714870D02*
X116440182Y-96795682D01*
X116440182Y-96795682D02*
X116440182Y-96849557D01*
X116440182Y-96849557D02*
X116413245Y-96930369D01*
X116413245Y-96930369D02*
X116197746Y-97145868D01*
X117329117Y-96553245D02*
X117005868Y-96876494D01*
X117167492Y-96714870D02*
X116601807Y-96149184D01*
X116601807Y-96149184D02*
X116628744Y-96283871D01*
X116628744Y-96283871D02*
X116628744Y-96391621D01*
X116628744Y-96391621D02*
X116601807Y-96472433D01*
X117032805Y-95825935D02*
X117032805Y-95772060D01*
X117032805Y-95772060D02*
X117059743Y-95691248D01*
X117059743Y-95691248D02*
X117194430Y-95556561D01*
X117194430Y-95556561D02*
X117275242Y-95529624D01*
X117275242Y-95529624D02*
X117329117Y-95529624D01*
X117329117Y-95529624D02*
X117409929Y-95556561D01*
X117409929Y-95556561D02*
X117463804Y-95610436D01*
X117463804Y-95610436D02*
X117517679Y-95718186D01*
X117517679Y-95718186D02*
X117517679Y-96364683D01*
X117517679Y-96364683D02*
X117867865Y-96014497D01*
X141735749Y-61855242D02*
X142489996Y-62232366D01*
X142489996Y-62232366D02*
X142112873Y-61478118D01*
X142813245Y-61855242D02*
X142920995Y-61801367D01*
X142920995Y-61801367D02*
X143055682Y-61666680D01*
X143055682Y-61666680D02*
X143082619Y-61585868D01*
X143082619Y-61585868D02*
X143082619Y-61531993D01*
X143082619Y-61531993D02*
X143055682Y-61451181D01*
X143055682Y-61451181D02*
X143001807Y-61397306D01*
X143001807Y-61397306D02*
X142920995Y-61370369D01*
X142920995Y-61370369D02*
X142867120Y-61370369D01*
X142867120Y-61370369D02*
X142786308Y-61397306D01*
X142786308Y-61397306D02*
X142651621Y-61478118D01*
X142651621Y-61478118D02*
X142570808Y-61505056D01*
X142570808Y-61505056D02*
X142516934Y-61505056D01*
X142516934Y-61505056D02*
X142436121Y-61478118D01*
X142436121Y-61478118D02*
X142382247Y-61424244D01*
X142382247Y-61424244D02*
X142355309Y-61343431D01*
X142355309Y-61343431D02*
X142355309Y-61289557D01*
X142355309Y-61289557D02*
X142382247Y-61208744D01*
X142382247Y-61208744D02*
X142516934Y-61074057D01*
X142516934Y-61074057D02*
X142624683Y-61020183D01*
X143244244Y-60939370D02*
X143513618Y-61208744D01*
X142759370Y-60831621D02*
X143244244Y-60939370D01*
X143244244Y-60939370D02*
X143136494Y-60454497D01*
X143836866Y-60831621D02*
X143944616Y-60777746D01*
X143944616Y-60777746D02*
X144079303Y-60643059D01*
X144079303Y-60643059D02*
X144106240Y-60562247D01*
X144106240Y-60562247D02*
X144106240Y-60508372D01*
X144106240Y-60508372D02*
X144079303Y-60427560D01*
X144079303Y-60427560D02*
X144025428Y-60373685D01*
X144025428Y-60373685D02*
X143944616Y-60346748D01*
X143944616Y-60346748D02*
X143890741Y-60346748D01*
X143890741Y-60346748D02*
X143809929Y-60373685D01*
X143809929Y-60373685D02*
X143675242Y-60454497D01*
X143675242Y-60454497D02*
X143594430Y-60481435D01*
X143594430Y-60481435D02*
X143540555Y-60481435D01*
X143540555Y-60481435D02*
X143459743Y-60454497D01*
X143459743Y-60454497D02*
X143405868Y-60400622D01*
X143405868Y-60400622D02*
X143378930Y-60319810D01*
X143378930Y-60319810D02*
X143378930Y-60265935D01*
X143378930Y-60265935D02*
X143405868Y-60185123D01*
X143405868Y-60185123D02*
X143540555Y-60050436D01*
X143540555Y-60050436D02*
X143648304Y-59996561D01*
X115758998Y-104765868D02*
X115678185Y-104792805D01*
X115678185Y-104792805D02*
X115597373Y-104873618D01*
X115597373Y-104873618D02*
X115543498Y-104981367D01*
X115543498Y-104981367D02*
X115543498Y-105089117D01*
X115543498Y-105089117D02*
X115570436Y-105169929D01*
X115570436Y-105169929D02*
X115651248Y-105304616D01*
X115651248Y-105304616D02*
X115732060Y-105385428D01*
X115732060Y-105385428D02*
X115866747Y-105466241D01*
X115866747Y-105466241D02*
X115947560Y-105493178D01*
X115947560Y-105493178D02*
X116055309Y-105493178D01*
X116055309Y-105493178D02*
X116163059Y-105439303D01*
X116163059Y-105439303D02*
X116216934Y-105385428D01*
X116216934Y-105385428D02*
X116270808Y-105277679D01*
X116270808Y-105277679D02*
X116270808Y-105223804D01*
X116270808Y-105223804D02*
X116082247Y-105035242D01*
X116082247Y-105035242D02*
X115974497Y-105142992D01*
X116567120Y-105035242D02*
X116001434Y-104469557D01*
X116001434Y-104469557D02*
X116216934Y-104254057D01*
X116216934Y-104254057D02*
X116297746Y-104227120D01*
X116297746Y-104227120D02*
X116351621Y-104227120D01*
X116351621Y-104227120D02*
X116432433Y-104254057D01*
X116432433Y-104254057D02*
X116513245Y-104334870D01*
X116513245Y-104334870D02*
X116540182Y-104415682D01*
X116540182Y-104415682D02*
X116540182Y-104469557D01*
X116540182Y-104469557D02*
X116513245Y-104550369D01*
X116513245Y-104550369D02*
X116297746Y-104765868D01*
X117429117Y-104173245D02*
X117105868Y-104496494D01*
X117267492Y-104334870D02*
X116701807Y-103769184D01*
X116701807Y-103769184D02*
X116728744Y-103903871D01*
X116728744Y-103903871D02*
X116728744Y-104011621D01*
X116728744Y-104011621D02*
X116701807Y-104092433D01*
X117536866Y-103311248D02*
X117913990Y-103688372D01*
X117186680Y-103230436D02*
X117456054Y-103769184D01*
X117456054Y-103769184D02*
X117806240Y-103418998D01*
X116301435Y-89283431D02*
X116220623Y-89310368D01*
X116220623Y-89310368D02*
X116139811Y-89391180D01*
X116139811Y-89391180D02*
X116085936Y-89498930D01*
X116085936Y-89498930D02*
X116085936Y-89606680D01*
X116085936Y-89606680D02*
X116112873Y-89687492D01*
X116112873Y-89687492D02*
X116193685Y-89822179D01*
X116193685Y-89822179D02*
X116274498Y-89902991D01*
X116274498Y-89902991D02*
X116409185Y-89983803D01*
X116409185Y-89983803D02*
X116489997Y-90010741D01*
X116489997Y-90010741D02*
X116597746Y-90010741D01*
X116597746Y-90010741D02*
X116705496Y-89956866D01*
X116705496Y-89956866D02*
X116759371Y-89902991D01*
X116759371Y-89902991D02*
X116813246Y-89795241D01*
X116813246Y-89795241D02*
X116813246Y-89741367D01*
X116813246Y-89741367D02*
X116624684Y-89552805D01*
X116624684Y-89552805D02*
X116516934Y-89660554D01*
X117109557Y-89552805D02*
X116543872Y-88987119D01*
X116543872Y-88987119D02*
X117432806Y-89229556D01*
X117432806Y-89229556D02*
X116867120Y-88663871D01*
X117702180Y-88960182D02*
X117136494Y-88394497D01*
X117136494Y-88394497D02*
X117271181Y-88259810D01*
X117271181Y-88259810D02*
X117378931Y-88205935D01*
X117378931Y-88205935D02*
X117486680Y-88205935D01*
X117486680Y-88205935D02*
X117567493Y-88232872D01*
X117567493Y-88232872D02*
X117702180Y-88313685D01*
X117702180Y-88313685D02*
X117782992Y-88394497D01*
X117782992Y-88394497D02*
X117863804Y-88529184D01*
X117863804Y-88529184D02*
X117890741Y-88609996D01*
X117890741Y-88609996D02*
X117890741Y-88717746D01*
X117890741Y-88717746D02*
X117836867Y-88825495D01*
X117836867Y-88825495D02*
X117702180Y-88960182D01*
X141912998Y-86985868D02*
X141832185Y-87012805D01*
X141832185Y-87012805D02*
X141751373Y-87093618D01*
X141751373Y-87093618D02*
X141697498Y-87201367D01*
X141697498Y-87201367D02*
X141697498Y-87309117D01*
X141697498Y-87309117D02*
X141724436Y-87389929D01*
X141724436Y-87389929D02*
X141805248Y-87524616D01*
X141805248Y-87524616D02*
X141886060Y-87605428D01*
X141886060Y-87605428D02*
X142020747Y-87686241D01*
X142020747Y-87686241D02*
X142101560Y-87713178D01*
X142101560Y-87713178D02*
X142209309Y-87713178D01*
X142209309Y-87713178D02*
X142317059Y-87659303D01*
X142317059Y-87659303D02*
X142370934Y-87605428D01*
X142370934Y-87605428D02*
X142424808Y-87497679D01*
X142424808Y-87497679D02*
X142424808Y-87443804D01*
X142424808Y-87443804D02*
X142236247Y-87255242D01*
X142236247Y-87255242D02*
X142128497Y-87362992D01*
X142721120Y-87255242D02*
X142155434Y-86689557D01*
X142155434Y-86689557D02*
X142370934Y-86474057D01*
X142370934Y-86474057D02*
X142451746Y-86447120D01*
X142451746Y-86447120D02*
X142505621Y-86447120D01*
X142505621Y-86447120D02*
X142586433Y-86474057D01*
X142586433Y-86474057D02*
X142667245Y-86554870D01*
X142667245Y-86554870D02*
X142694182Y-86635682D01*
X142694182Y-86635682D02*
X142694182Y-86689557D01*
X142694182Y-86689557D02*
X142667245Y-86770369D01*
X142667245Y-86770369D02*
X142451746Y-86985868D01*
X142748057Y-86204683D02*
X142748057Y-86150809D01*
X142748057Y-86150809D02*
X142774995Y-86069996D01*
X142774995Y-86069996D02*
X142909682Y-85935309D01*
X142909682Y-85935309D02*
X142990494Y-85908372D01*
X142990494Y-85908372D02*
X143044369Y-85908372D01*
X143044369Y-85908372D02*
X143125181Y-85935309D01*
X143125181Y-85935309D02*
X143179056Y-85989184D01*
X143179056Y-85989184D02*
X143232930Y-86096934D01*
X143232930Y-86096934D02*
X143232930Y-86743431D01*
X143232930Y-86743431D02*
X143583117Y-86393245D01*
X143286805Y-85665935D02*
X143286805Y-85612060D01*
X143286805Y-85612060D02*
X143313743Y-85531248D01*
X143313743Y-85531248D02*
X143448430Y-85396561D01*
X143448430Y-85396561D02*
X143529242Y-85369624D01*
X143529242Y-85369624D02*
X143583117Y-85369624D01*
X143583117Y-85369624D02*
X143663929Y-85396561D01*
X143663929Y-85396561D02*
X143717804Y-85450436D01*
X143717804Y-85450436D02*
X143771679Y-85558186D01*
X143771679Y-85558186D02*
X143771679Y-86204683D01*
X143771679Y-86204683D02*
X144121865Y-85854497D01*
X141912998Y-92075868D02*
X141832185Y-92102805D01*
X141832185Y-92102805D02*
X141751373Y-92183618D01*
X141751373Y-92183618D02*
X141697498Y-92291367D01*
X141697498Y-92291367D02*
X141697498Y-92399117D01*
X141697498Y-92399117D02*
X141724436Y-92479929D01*
X141724436Y-92479929D02*
X141805248Y-92614616D01*
X141805248Y-92614616D02*
X141886060Y-92695428D01*
X141886060Y-92695428D02*
X142020747Y-92776241D01*
X142020747Y-92776241D02*
X142101560Y-92803178D01*
X142101560Y-92803178D02*
X142209309Y-92803178D01*
X142209309Y-92803178D02*
X142317059Y-92749303D01*
X142317059Y-92749303D02*
X142370934Y-92695428D01*
X142370934Y-92695428D02*
X142424808Y-92587679D01*
X142424808Y-92587679D02*
X142424808Y-92533804D01*
X142424808Y-92533804D02*
X142236247Y-92345242D01*
X142236247Y-92345242D02*
X142128497Y-92452992D01*
X142721120Y-92345242D02*
X142155434Y-91779557D01*
X142155434Y-91779557D02*
X142370934Y-91564057D01*
X142370934Y-91564057D02*
X142451746Y-91537120D01*
X142451746Y-91537120D02*
X142505621Y-91537120D01*
X142505621Y-91537120D02*
X142586433Y-91564057D01*
X142586433Y-91564057D02*
X142667245Y-91644870D01*
X142667245Y-91644870D02*
X142694182Y-91725682D01*
X142694182Y-91725682D02*
X142694182Y-91779557D01*
X142694182Y-91779557D02*
X142667245Y-91860369D01*
X142667245Y-91860369D02*
X142451746Y-92075868D01*
X142748057Y-91294683D02*
X142748057Y-91240809D01*
X142748057Y-91240809D02*
X142774995Y-91159996D01*
X142774995Y-91159996D02*
X142909682Y-91025309D01*
X142909682Y-91025309D02*
X142990494Y-90998372D01*
X142990494Y-90998372D02*
X143044369Y-90998372D01*
X143044369Y-90998372D02*
X143125181Y-91025309D01*
X143125181Y-91025309D02*
X143179056Y-91079184D01*
X143179056Y-91079184D02*
X143232930Y-91186934D01*
X143232930Y-91186934D02*
X143232930Y-91833431D01*
X143232930Y-91833431D02*
X143583117Y-91483245D01*
X144121865Y-90944497D02*
X143798616Y-91267746D01*
X143960240Y-91106121D02*
X143394555Y-90540436D01*
X143394555Y-90540436D02*
X143421492Y-90675123D01*
X143421492Y-90675123D02*
X143421492Y-90782873D01*
X143421492Y-90782873D02*
X143394555Y-90863685D01*
X116328372Y-79096494D02*
X116247560Y-79123431D01*
X116247560Y-79123431D02*
X116166748Y-79204243D01*
X116166748Y-79204243D02*
X116112873Y-79311993D01*
X116112873Y-79311993D02*
X116112873Y-79419742D01*
X116112873Y-79419742D02*
X116139810Y-79500555D01*
X116139810Y-79500555D02*
X116220623Y-79635242D01*
X116220623Y-79635242D02*
X116301435Y-79716054D01*
X116301435Y-79716054D02*
X116436122Y-79796866D01*
X116436122Y-79796866D02*
X116516934Y-79823803D01*
X116516934Y-79823803D02*
X116624684Y-79823803D01*
X116624684Y-79823803D02*
X116732433Y-79769929D01*
X116732433Y-79769929D02*
X116786308Y-79716054D01*
X116786308Y-79716054D02*
X116840183Y-79608304D01*
X116840183Y-79608304D02*
X116840183Y-79554429D01*
X116840183Y-79554429D02*
X116651621Y-79365868D01*
X116651621Y-79365868D02*
X116543871Y-79473617D01*
X117136494Y-79365868D02*
X116570809Y-78800182D01*
X116570809Y-78800182D02*
X116786308Y-78584683D01*
X116786308Y-78584683D02*
X116867120Y-78557746D01*
X116867120Y-78557746D02*
X116920995Y-78557746D01*
X116920995Y-78557746D02*
X117001807Y-78584683D01*
X117001807Y-78584683D02*
X117082619Y-78665495D01*
X117082619Y-78665495D02*
X117109557Y-78746307D01*
X117109557Y-78746307D02*
X117109557Y-78800182D01*
X117109557Y-78800182D02*
X117082619Y-78880994D01*
X117082619Y-78880994D02*
X116867120Y-79096494D01*
X117378931Y-77992060D02*
X117271181Y-78099810D01*
X117271181Y-78099810D02*
X117244244Y-78180622D01*
X117244244Y-78180622D02*
X117244244Y-78234497D01*
X117244244Y-78234497D02*
X117271181Y-78369184D01*
X117271181Y-78369184D02*
X117351993Y-78503871D01*
X117351993Y-78503871D02*
X117567493Y-78719370D01*
X117567493Y-78719370D02*
X117648305Y-78746307D01*
X117648305Y-78746307D02*
X117702180Y-78746307D01*
X117702180Y-78746307D02*
X117782992Y-78719370D01*
X117782992Y-78719370D02*
X117890741Y-78611620D01*
X117890741Y-78611620D02*
X117917679Y-78530808D01*
X117917679Y-78530808D02*
X117917679Y-78476933D01*
X117917679Y-78476933D02*
X117890741Y-78396121D01*
X117890741Y-78396121D02*
X117756054Y-78261434D01*
X117756054Y-78261434D02*
X117675242Y-78234497D01*
X117675242Y-78234497D02*
X117621367Y-78234497D01*
X117621367Y-78234497D02*
X117540555Y-78261434D01*
X117540555Y-78261434D02*
X117432806Y-78369184D01*
X117432806Y-78369184D02*
X117405868Y-78449996D01*
X117405868Y-78449996D02*
X117405868Y-78503871D01*
X117405868Y-78503871D02*
X117432806Y-78584683D01*
X141912998Y-99685868D02*
X141832185Y-99712805D01*
X141832185Y-99712805D02*
X141751373Y-99793618D01*
X141751373Y-99793618D02*
X141697498Y-99901367D01*
X141697498Y-99901367D02*
X141697498Y-100009117D01*
X141697498Y-100009117D02*
X141724436Y-100089929D01*
X141724436Y-100089929D02*
X141805248Y-100224616D01*
X141805248Y-100224616D02*
X141886060Y-100305428D01*
X141886060Y-100305428D02*
X142020747Y-100386241D01*
X142020747Y-100386241D02*
X142101560Y-100413178D01*
X142101560Y-100413178D02*
X142209309Y-100413178D01*
X142209309Y-100413178D02*
X142317059Y-100359303D01*
X142317059Y-100359303D02*
X142370934Y-100305428D01*
X142370934Y-100305428D02*
X142424808Y-100197679D01*
X142424808Y-100197679D02*
X142424808Y-100143804D01*
X142424808Y-100143804D02*
X142236247Y-99955242D01*
X142236247Y-99955242D02*
X142128497Y-100062992D01*
X142721120Y-99955242D02*
X142155434Y-99389557D01*
X142155434Y-99389557D02*
X142370934Y-99174057D01*
X142370934Y-99174057D02*
X142451746Y-99147120D01*
X142451746Y-99147120D02*
X142505621Y-99147120D01*
X142505621Y-99147120D02*
X142586433Y-99174057D01*
X142586433Y-99174057D02*
X142667245Y-99254870D01*
X142667245Y-99254870D02*
X142694182Y-99335682D01*
X142694182Y-99335682D02*
X142694182Y-99389557D01*
X142694182Y-99389557D02*
X142667245Y-99470369D01*
X142667245Y-99470369D02*
X142451746Y-99685868D01*
X143583117Y-99093245D02*
X143259868Y-99416494D01*
X143421492Y-99254870D02*
X142855807Y-98689184D01*
X142855807Y-98689184D02*
X142882744Y-98823871D01*
X142882744Y-98823871D02*
X142882744Y-98931621D01*
X142882744Y-98931621D02*
X142855807Y-99012433D01*
X143583117Y-98446747D02*
X143502305Y-98473685D01*
X143502305Y-98473685D02*
X143448430Y-98473685D01*
X143448430Y-98473685D02*
X143367618Y-98446747D01*
X143367618Y-98446747D02*
X143340680Y-98419810D01*
X143340680Y-98419810D02*
X143313743Y-98338998D01*
X143313743Y-98338998D02*
X143313743Y-98285123D01*
X143313743Y-98285123D02*
X143340680Y-98204311D01*
X143340680Y-98204311D02*
X143448430Y-98096561D01*
X143448430Y-98096561D02*
X143529242Y-98069624D01*
X143529242Y-98069624D02*
X143583117Y-98069624D01*
X143583117Y-98069624D02*
X143663929Y-98096561D01*
X143663929Y-98096561D02*
X143690866Y-98123499D01*
X143690866Y-98123499D02*
X143717804Y-98204311D01*
X143717804Y-98204311D02*
X143717804Y-98258186D01*
X143717804Y-98258186D02*
X143690866Y-98338998D01*
X143690866Y-98338998D02*
X143583117Y-98446747D01*
X143583117Y-98446747D02*
X143556179Y-98527560D01*
X143556179Y-98527560D02*
X143556179Y-98581434D01*
X143556179Y-98581434D02*
X143583117Y-98662247D01*
X143583117Y-98662247D02*
X143690866Y-98769996D01*
X143690866Y-98769996D02*
X143771679Y-98796934D01*
X143771679Y-98796934D02*
X143825553Y-98796934D01*
X143825553Y-98796934D02*
X143906366Y-98769996D01*
X143906366Y-98769996D02*
X144014115Y-98662247D01*
X144014115Y-98662247D02*
X144041053Y-98581434D01*
X144041053Y-98581434D02*
X144041053Y-98527560D01*
X144041053Y-98527560D02*
X144014115Y-98446747D01*
X144014115Y-98446747D02*
X143906366Y-98338998D01*
X143906366Y-98338998D02*
X143825553Y-98312060D01*
X143825553Y-98312060D02*
X143771679Y-98312060D01*
X143771679Y-98312060D02*
X143690866Y-98338998D01*
X116228372Y-66396494D02*
X116147560Y-66423431D01*
X116147560Y-66423431D02*
X116066748Y-66504243D01*
X116066748Y-66504243D02*
X116012873Y-66611993D01*
X116012873Y-66611993D02*
X116012873Y-66719742D01*
X116012873Y-66719742D02*
X116039810Y-66800555D01*
X116039810Y-66800555D02*
X116120623Y-66935242D01*
X116120623Y-66935242D02*
X116201435Y-67016054D01*
X116201435Y-67016054D02*
X116336122Y-67096866D01*
X116336122Y-67096866D02*
X116416934Y-67123803D01*
X116416934Y-67123803D02*
X116524684Y-67123803D01*
X116524684Y-67123803D02*
X116632433Y-67069929D01*
X116632433Y-67069929D02*
X116686308Y-67016054D01*
X116686308Y-67016054D02*
X116740183Y-66908304D01*
X116740183Y-66908304D02*
X116740183Y-66854429D01*
X116740183Y-66854429D02*
X116551621Y-66665868D01*
X116551621Y-66665868D02*
X116443871Y-66773617D01*
X117036494Y-66665868D02*
X116470809Y-66100182D01*
X116470809Y-66100182D02*
X116686308Y-65884683D01*
X116686308Y-65884683D02*
X116767120Y-65857746D01*
X116767120Y-65857746D02*
X116820995Y-65857746D01*
X116820995Y-65857746D02*
X116901807Y-65884683D01*
X116901807Y-65884683D02*
X116982619Y-65965495D01*
X116982619Y-65965495D02*
X117009557Y-66046307D01*
X117009557Y-66046307D02*
X117009557Y-66100182D01*
X117009557Y-66100182D02*
X116982619Y-66180994D01*
X116982619Y-66180994D02*
X116767120Y-66396494D01*
X117063432Y-65615309D02*
X117063432Y-65561434D01*
X117063432Y-65561434D02*
X117090369Y-65480622D01*
X117090369Y-65480622D02*
X117225056Y-65345935D01*
X117225056Y-65345935D02*
X117305868Y-65318998D01*
X117305868Y-65318998D02*
X117359743Y-65318998D01*
X117359743Y-65318998D02*
X117440555Y-65345935D01*
X117440555Y-65345935D02*
X117494430Y-65399810D01*
X117494430Y-65399810D02*
X117548305Y-65507559D01*
X117548305Y-65507559D02*
X117548305Y-66154057D01*
X117548305Y-66154057D02*
X117898491Y-65803871D01*
X141912998Y-97145868D02*
X141832185Y-97172805D01*
X141832185Y-97172805D02*
X141751373Y-97253618D01*
X141751373Y-97253618D02*
X141697498Y-97361367D01*
X141697498Y-97361367D02*
X141697498Y-97469117D01*
X141697498Y-97469117D02*
X141724436Y-97549929D01*
X141724436Y-97549929D02*
X141805248Y-97684616D01*
X141805248Y-97684616D02*
X141886060Y-97765428D01*
X141886060Y-97765428D02*
X142020747Y-97846241D01*
X142020747Y-97846241D02*
X142101560Y-97873178D01*
X142101560Y-97873178D02*
X142209309Y-97873178D01*
X142209309Y-97873178D02*
X142317059Y-97819303D01*
X142317059Y-97819303D02*
X142370934Y-97765428D01*
X142370934Y-97765428D02*
X142424808Y-97657679D01*
X142424808Y-97657679D02*
X142424808Y-97603804D01*
X142424808Y-97603804D02*
X142236247Y-97415242D01*
X142236247Y-97415242D02*
X142128497Y-97522992D01*
X142721120Y-97415242D02*
X142155434Y-96849557D01*
X142155434Y-96849557D02*
X142370934Y-96634057D01*
X142370934Y-96634057D02*
X142451746Y-96607120D01*
X142451746Y-96607120D02*
X142505621Y-96607120D01*
X142505621Y-96607120D02*
X142586433Y-96634057D01*
X142586433Y-96634057D02*
X142667245Y-96714870D01*
X142667245Y-96714870D02*
X142694182Y-96795682D01*
X142694182Y-96795682D02*
X142694182Y-96849557D01*
X142694182Y-96849557D02*
X142667245Y-96930369D01*
X142667245Y-96930369D02*
X142451746Y-97145868D01*
X143583117Y-96553245D02*
X143259868Y-96876494D01*
X143421492Y-96714870D02*
X142855807Y-96149184D01*
X142855807Y-96149184D02*
X142882744Y-96283871D01*
X142882744Y-96283871D02*
X142882744Y-96391621D01*
X142882744Y-96391621D02*
X142855807Y-96472433D01*
X143852491Y-96283871D02*
X143960240Y-96176121D01*
X143960240Y-96176121D02*
X143987178Y-96095309D01*
X143987178Y-96095309D02*
X143987178Y-96041434D01*
X143987178Y-96041434D02*
X143960240Y-95906747D01*
X143960240Y-95906747D02*
X143879428Y-95772060D01*
X143879428Y-95772060D02*
X143663929Y-95556561D01*
X143663929Y-95556561D02*
X143583117Y-95529624D01*
X143583117Y-95529624D02*
X143529242Y-95529624D01*
X143529242Y-95529624D02*
X143448430Y-95556561D01*
X143448430Y-95556561D02*
X143340680Y-95664311D01*
X143340680Y-95664311D02*
X143313743Y-95745123D01*
X143313743Y-95745123D02*
X143313743Y-95798998D01*
X143313743Y-95798998D02*
X143340680Y-95879810D01*
X143340680Y-95879810D02*
X143475367Y-96014497D01*
X143475367Y-96014497D02*
X143556179Y-96041434D01*
X143556179Y-96041434D02*
X143610054Y-96041434D01*
X143610054Y-96041434D02*
X143690866Y-96014497D01*
X143690866Y-96014497D02*
X143798616Y-95906747D01*
X143798616Y-95906747D02*
X143825553Y-95825935D01*
X143825553Y-95825935D02*
X143825553Y-95772060D01*
X143825553Y-95772060D02*
X143798616Y-95691248D01*
X141912998Y-94605868D02*
X141832185Y-94632805D01*
X141832185Y-94632805D02*
X141751373Y-94713618D01*
X141751373Y-94713618D02*
X141697498Y-94821367D01*
X141697498Y-94821367D02*
X141697498Y-94929117D01*
X141697498Y-94929117D02*
X141724436Y-95009929D01*
X141724436Y-95009929D02*
X141805248Y-95144616D01*
X141805248Y-95144616D02*
X141886060Y-95225428D01*
X141886060Y-95225428D02*
X142020747Y-95306241D01*
X142020747Y-95306241D02*
X142101560Y-95333178D01*
X142101560Y-95333178D02*
X142209309Y-95333178D01*
X142209309Y-95333178D02*
X142317059Y-95279303D01*
X142317059Y-95279303D02*
X142370934Y-95225428D01*
X142370934Y-95225428D02*
X142424808Y-95117679D01*
X142424808Y-95117679D02*
X142424808Y-95063804D01*
X142424808Y-95063804D02*
X142236247Y-94875242D01*
X142236247Y-94875242D02*
X142128497Y-94982992D01*
X142721120Y-94875242D02*
X142155434Y-94309557D01*
X142155434Y-94309557D02*
X142370934Y-94094057D01*
X142370934Y-94094057D02*
X142451746Y-94067120D01*
X142451746Y-94067120D02*
X142505621Y-94067120D01*
X142505621Y-94067120D02*
X142586433Y-94094057D01*
X142586433Y-94094057D02*
X142667245Y-94174870D01*
X142667245Y-94174870D02*
X142694182Y-94255682D01*
X142694182Y-94255682D02*
X142694182Y-94309557D01*
X142694182Y-94309557D02*
X142667245Y-94390369D01*
X142667245Y-94390369D02*
X142451746Y-94605868D01*
X142748057Y-93824683D02*
X142748057Y-93770809D01*
X142748057Y-93770809D02*
X142774995Y-93689996D01*
X142774995Y-93689996D02*
X142909682Y-93555309D01*
X142909682Y-93555309D02*
X142990494Y-93528372D01*
X142990494Y-93528372D02*
X143044369Y-93528372D01*
X143044369Y-93528372D02*
X143125181Y-93555309D01*
X143125181Y-93555309D02*
X143179056Y-93609184D01*
X143179056Y-93609184D02*
X143232930Y-93716934D01*
X143232930Y-93716934D02*
X143232930Y-94363431D01*
X143232930Y-94363431D02*
X143583117Y-94013245D01*
X143367618Y-93097373D02*
X143421492Y-93043499D01*
X143421492Y-93043499D02*
X143502305Y-93016561D01*
X143502305Y-93016561D02*
X143556179Y-93016561D01*
X143556179Y-93016561D02*
X143636992Y-93043499D01*
X143636992Y-93043499D02*
X143771679Y-93124311D01*
X143771679Y-93124311D02*
X143906366Y-93258998D01*
X143906366Y-93258998D02*
X143987178Y-93393685D01*
X143987178Y-93393685D02*
X144014115Y-93474497D01*
X144014115Y-93474497D02*
X144014115Y-93528372D01*
X144014115Y-93528372D02*
X143987178Y-93609184D01*
X143987178Y-93609184D02*
X143933303Y-93663059D01*
X143933303Y-93663059D02*
X143852491Y-93689996D01*
X143852491Y-93689996D02*
X143798616Y-93689996D01*
X143798616Y-93689996D02*
X143717804Y-93663059D01*
X143717804Y-93663059D02*
X143583117Y-93582247D01*
X143583117Y-93582247D02*
X143448430Y-93447560D01*
X143448430Y-93447560D02*
X143367618Y-93312873D01*
X143367618Y-93312873D02*
X143340680Y-93232060D01*
X143340680Y-93232060D02*
X143340680Y-93178186D01*
X143340680Y-93178186D02*
X143367618Y-93097373D01*
X116301435Y-63883431D02*
X116220623Y-63910368D01*
X116220623Y-63910368D02*
X116139811Y-63991180D01*
X116139811Y-63991180D02*
X116085936Y-64098930D01*
X116085936Y-64098930D02*
X116085936Y-64206680D01*
X116085936Y-64206680D02*
X116112873Y-64287492D01*
X116112873Y-64287492D02*
X116193685Y-64422179D01*
X116193685Y-64422179D02*
X116274498Y-64502991D01*
X116274498Y-64502991D02*
X116409185Y-64583803D01*
X116409185Y-64583803D02*
X116489997Y-64610741D01*
X116489997Y-64610741D02*
X116597746Y-64610741D01*
X116597746Y-64610741D02*
X116705496Y-64556866D01*
X116705496Y-64556866D02*
X116759371Y-64502991D01*
X116759371Y-64502991D02*
X116813246Y-64395241D01*
X116813246Y-64395241D02*
X116813246Y-64341367D01*
X116813246Y-64341367D02*
X116624684Y-64152805D01*
X116624684Y-64152805D02*
X116516934Y-64260554D01*
X117109557Y-64152805D02*
X116543872Y-63587119D01*
X116543872Y-63587119D02*
X117432806Y-63829556D01*
X117432806Y-63829556D02*
X116867120Y-63263871D01*
X117702180Y-63560182D02*
X117136494Y-62994497D01*
X117136494Y-62994497D02*
X117271181Y-62859810D01*
X117271181Y-62859810D02*
X117378931Y-62805935D01*
X117378931Y-62805935D02*
X117486680Y-62805935D01*
X117486680Y-62805935D02*
X117567493Y-62832872D01*
X117567493Y-62832872D02*
X117702180Y-62913685D01*
X117702180Y-62913685D02*
X117782992Y-62994497D01*
X117782992Y-62994497D02*
X117863804Y-63129184D01*
X117863804Y-63129184D02*
X117890741Y-63209996D01*
X117890741Y-63209996D02*
X117890741Y-63317746D01*
X117890741Y-63317746D02*
X117836867Y-63425495D01*
X117836867Y-63425495D02*
X117702180Y-63560182D01*
X116301435Y-101983431D02*
X116220623Y-102010368D01*
X116220623Y-102010368D02*
X116139811Y-102091180D01*
X116139811Y-102091180D02*
X116085936Y-102198930D01*
X116085936Y-102198930D02*
X116085936Y-102306680D01*
X116085936Y-102306680D02*
X116112873Y-102387492D01*
X116112873Y-102387492D02*
X116193685Y-102522179D01*
X116193685Y-102522179D02*
X116274498Y-102602991D01*
X116274498Y-102602991D02*
X116409185Y-102683803D01*
X116409185Y-102683803D02*
X116489997Y-102710741D01*
X116489997Y-102710741D02*
X116597746Y-102710741D01*
X116597746Y-102710741D02*
X116705496Y-102656866D01*
X116705496Y-102656866D02*
X116759371Y-102602991D01*
X116759371Y-102602991D02*
X116813246Y-102495241D01*
X116813246Y-102495241D02*
X116813246Y-102441367D01*
X116813246Y-102441367D02*
X116624684Y-102252805D01*
X116624684Y-102252805D02*
X116516934Y-102360554D01*
X117109557Y-102252805D02*
X116543872Y-101687119D01*
X116543872Y-101687119D02*
X117432806Y-101929556D01*
X117432806Y-101929556D02*
X116867120Y-101363871D01*
X117702180Y-101660182D02*
X117136494Y-101094497D01*
X117136494Y-101094497D02*
X117271181Y-100959810D01*
X117271181Y-100959810D02*
X117378931Y-100905935D01*
X117378931Y-100905935D02*
X117486680Y-100905935D01*
X117486680Y-100905935D02*
X117567493Y-100932872D01*
X117567493Y-100932872D02*
X117702180Y-101013685D01*
X117702180Y-101013685D02*
X117782992Y-101094497D01*
X117782992Y-101094497D02*
X117863804Y-101229184D01*
X117863804Y-101229184D02*
X117890741Y-101309996D01*
X117890741Y-101309996D02*
X117890741Y-101417746D01*
X117890741Y-101417746D02*
X117836867Y-101525495D01*
X117836867Y-101525495D02*
X117702180Y-101660182D01*
X116328372Y-68936494D02*
X116247560Y-68963431D01*
X116247560Y-68963431D02*
X116166748Y-69044243D01*
X116166748Y-69044243D02*
X116112873Y-69151993D01*
X116112873Y-69151993D02*
X116112873Y-69259742D01*
X116112873Y-69259742D02*
X116139810Y-69340555D01*
X116139810Y-69340555D02*
X116220623Y-69475242D01*
X116220623Y-69475242D02*
X116301435Y-69556054D01*
X116301435Y-69556054D02*
X116436122Y-69636866D01*
X116436122Y-69636866D02*
X116516934Y-69663803D01*
X116516934Y-69663803D02*
X116624684Y-69663803D01*
X116624684Y-69663803D02*
X116732433Y-69609929D01*
X116732433Y-69609929D02*
X116786308Y-69556054D01*
X116786308Y-69556054D02*
X116840183Y-69448304D01*
X116840183Y-69448304D02*
X116840183Y-69394429D01*
X116840183Y-69394429D02*
X116651621Y-69205868D01*
X116651621Y-69205868D02*
X116543871Y-69313617D01*
X117136494Y-69205868D02*
X116570809Y-68640182D01*
X116570809Y-68640182D02*
X116786308Y-68424683D01*
X116786308Y-68424683D02*
X116867120Y-68397746D01*
X116867120Y-68397746D02*
X116920995Y-68397746D01*
X116920995Y-68397746D02*
X117001807Y-68424683D01*
X117001807Y-68424683D02*
X117082619Y-68505495D01*
X117082619Y-68505495D02*
X117109557Y-68586307D01*
X117109557Y-68586307D02*
X117109557Y-68640182D01*
X117109557Y-68640182D02*
X117082619Y-68720994D01*
X117082619Y-68720994D02*
X116867120Y-68936494D01*
X117082619Y-68128372D02*
X117432806Y-67778185D01*
X117432806Y-67778185D02*
X117459743Y-68182246D01*
X117459743Y-68182246D02*
X117540555Y-68101434D01*
X117540555Y-68101434D02*
X117621367Y-68074497D01*
X117621367Y-68074497D02*
X117675242Y-68074497D01*
X117675242Y-68074497D02*
X117756054Y-68101434D01*
X117756054Y-68101434D02*
X117890741Y-68236121D01*
X117890741Y-68236121D02*
X117917679Y-68316933D01*
X117917679Y-68316933D02*
X117917679Y-68370808D01*
X117917679Y-68370808D02*
X117890741Y-68451620D01*
X117890741Y-68451620D02*
X117729117Y-68613245D01*
X117729117Y-68613245D02*
X117648305Y-68640182D01*
X117648305Y-68640182D02*
X117594430Y-68640182D01*
X116328372Y-58776494D02*
X116247560Y-58803431D01*
X116247560Y-58803431D02*
X116166748Y-58884243D01*
X116166748Y-58884243D02*
X116112873Y-58991993D01*
X116112873Y-58991993D02*
X116112873Y-59099742D01*
X116112873Y-59099742D02*
X116139810Y-59180555D01*
X116139810Y-59180555D02*
X116220623Y-59315242D01*
X116220623Y-59315242D02*
X116301435Y-59396054D01*
X116301435Y-59396054D02*
X116436122Y-59476866D01*
X116436122Y-59476866D02*
X116516934Y-59503803D01*
X116516934Y-59503803D02*
X116624684Y-59503803D01*
X116624684Y-59503803D02*
X116732433Y-59449929D01*
X116732433Y-59449929D02*
X116786308Y-59396054D01*
X116786308Y-59396054D02*
X116840183Y-59288304D01*
X116840183Y-59288304D02*
X116840183Y-59234429D01*
X116840183Y-59234429D02*
X116651621Y-59045868D01*
X116651621Y-59045868D02*
X116543871Y-59153617D01*
X117136494Y-59045868D02*
X116570809Y-58480182D01*
X116570809Y-58480182D02*
X116786308Y-58264683D01*
X116786308Y-58264683D02*
X116867120Y-58237746D01*
X116867120Y-58237746D02*
X116920995Y-58237746D01*
X116920995Y-58237746D02*
X117001807Y-58264683D01*
X117001807Y-58264683D02*
X117082619Y-58345495D01*
X117082619Y-58345495D02*
X117109557Y-58426307D01*
X117109557Y-58426307D02*
X117109557Y-58480182D01*
X117109557Y-58480182D02*
X117082619Y-58560994D01*
X117082619Y-58560994D02*
X116867120Y-58776494D01*
X117244244Y-57806747D02*
X117298119Y-57752872D01*
X117298119Y-57752872D02*
X117378931Y-57725935D01*
X117378931Y-57725935D02*
X117432806Y-57725935D01*
X117432806Y-57725935D02*
X117513618Y-57752872D01*
X117513618Y-57752872D02*
X117648305Y-57833685D01*
X117648305Y-57833685D02*
X117782992Y-57968372D01*
X117782992Y-57968372D02*
X117863804Y-58103059D01*
X117863804Y-58103059D02*
X117890741Y-58183871D01*
X117890741Y-58183871D02*
X117890741Y-58237746D01*
X117890741Y-58237746D02*
X117863804Y-58318558D01*
X117863804Y-58318558D02*
X117809929Y-58372433D01*
X117809929Y-58372433D02*
X117729117Y-58399370D01*
X117729117Y-58399370D02*
X117675242Y-58399370D01*
X117675242Y-58399370D02*
X117594430Y-58372433D01*
X117594430Y-58372433D02*
X117459743Y-58291620D01*
X117459743Y-58291620D02*
X117325056Y-58156933D01*
X117325056Y-58156933D02*
X117244244Y-58022246D01*
X117244244Y-58022246D02*
X117217306Y-57941434D01*
X117217306Y-57941434D02*
X117217306Y-57887559D01*
X117217306Y-57887559D02*
X117244244Y-57806747D01*
X116328372Y-74016494D02*
X116247560Y-74043431D01*
X116247560Y-74043431D02*
X116166748Y-74124243D01*
X116166748Y-74124243D02*
X116112873Y-74231993D01*
X116112873Y-74231993D02*
X116112873Y-74339742D01*
X116112873Y-74339742D02*
X116139810Y-74420555D01*
X116139810Y-74420555D02*
X116220623Y-74555242D01*
X116220623Y-74555242D02*
X116301435Y-74636054D01*
X116301435Y-74636054D02*
X116436122Y-74716866D01*
X116436122Y-74716866D02*
X116516934Y-74743803D01*
X116516934Y-74743803D02*
X116624684Y-74743803D01*
X116624684Y-74743803D02*
X116732433Y-74689929D01*
X116732433Y-74689929D02*
X116786308Y-74636054D01*
X116786308Y-74636054D02*
X116840183Y-74528304D01*
X116840183Y-74528304D02*
X116840183Y-74474429D01*
X116840183Y-74474429D02*
X116651621Y-74285868D01*
X116651621Y-74285868D02*
X116543871Y-74393617D01*
X117136494Y-74285868D02*
X116570809Y-73720182D01*
X116570809Y-73720182D02*
X116786308Y-73504683D01*
X116786308Y-73504683D02*
X116867120Y-73477746D01*
X116867120Y-73477746D02*
X116920995Y-73477746D01*
X116920995Y-73477746D02*
X117001807Y-73504683D01*
X117001807Y-73504683D02*
X117082619Y-73585495D01*
X117082619Y-73585495D02*
X117109557Y-73666307D01*
X117109557Y-73666307D02*
X117109557Y-73720182D01*
X117109557Y-73720182D02*
X117082619Y-73800994D01*
X117082619Y-73800994D02*
X116867120Y-74016494D01*
X117405868Y-72885123D02*
X117136494Y-73154497D01*
X117136494Y-73154497D02*
X117378931Y-73450808D01*
X117378931Y-73450808D02*
X117378931Y-73396933D01*
X117378931Y-73396933D02*
X117405868Y-73316121D01*
X117405868Y-73316121D02*
X117540555Y-73181434D01*
X117540555Y-73181434D02*
X117621367Y-73154497D01*
X117621367Y-73154497D02*
X117675242Y-73154497D01*
X117675242Y-73154497D02*
X117756054Y-73181434D01*
X117756054Y-73181434D02*
X117890741Y-73316121D01*
X117890741Y-73316121D02*
X117917679Y-73396933D01*
X117917679Y-73396933D02*
X117917679Y-73450808D01*
X117917679Y-73450808D02*
X117890741Y-73531620D01*
X117890741Y-73531620D02*
X117756054Y-73666307D01*
X117756054Y-73666307D02*
X117675242Y-73693245D01*
X117675242Y-73693245D02*
X117621367Y-73693245D01*
X133719761Y-109309200D02*
X133834047Y-109347295D01*
X133834047Y-109347295D02*
X134024523Y-109347295D01*
X134024523Y-109347295D02*
X134100714Y-109309200D01*
X134100714Y-109309200D02*
X134138809Y-109271104D01*
X134138809Y-109271104D02*
X134176904Y-109194914D01*
X134176904Y-109194914D02*
X134176904Y-109118723D01*
X134176904Y-109118723D02*
X134138809Y-109042533D01*
X134138809Y-109042533D02*
X134100714Y-109004438D01*
X134100714Y-109004438D02*
X134024523Y-108966342D01*
X134024523Y-108966342D02*
X133872142Y-108928247D01*
X133872142Y-108928247D02*
X133795952Y-108890152D01*
X133795952Y-108890152D02*
X133757857Y-108852057D01*
X133757857Y-108852057D02*
X133719761Y-108775866D01*
X133719761Y-108775866D02*
X133719761Y-108699676D01*
X133719761Y-108699676D02*
X133757857Y-108623485D01*
X133757857Y-108623485D02*
X133795952Y-108585390D01*
X133795952Y-108585390D02*
X133872142Y-108547295D01*
X133872142Y-108547295D02*
X134062619Y-108547295D01*
X134062619Y-108547295D02*
X134176904Y-108585390D01*
X134443571Y-108547295D02*
X134634047Y-109347295D01*
X134634047Y-109347295D02*
X134786428Y-108775866D01*
X134786428Y-108775866D02*
X134938809Y-109347295D01*
X134938809Y-109347295D02*
X135129286Y-108547295D01*
X135434048Y-109347295D02*
X135434048Y-108547295D01*
X135434048Y-108547295D02*
X135624524Y-108547295D01*
X135624524Y-108547295D02*
X135738810Y-108585390D01*
X135738810Y-108585390D02*
X135815000Y-108661580D01*
X135815000Y-108661580D02*
X135853095Y-108737771D01*
X135853095Y-108737771D02*
X135891191Y-108890152D01*
X135891191Y-108890152D02*
X135891191Y-109004438D01*
X135891191Y-109004438D02*
X135853095Y-109156819D01*
X135853095Y-109156819D02*
X135815000Y-109233009D01*
X135815000Y-109233009D02*
X135738810Y-109309200D01*
X135738810Y-109309200D02*
X135624524Y-109347295D01*
X135624524Y-109347295D02*
X135434048Y-109347295D01*
X136234048Y-109347295D02*
X136234048Y-108547295D01*
X136767381Y-108547295D02*
X136919762Y-108547295D01*
X136919762Y-108547295D02*
X136995952Y-108585390D01*
X136995952Y-108585390D02*
X137072143Y-108661580D01*
X137072143Y-108661580D02*
X137110238Y-108813961D01*
X137110238Y-108813961D02*
X137110238Y-109080628D01*
X137110238Y-109080628D02*
X137072143Y-109233009D01*
X137072143Y-109233009D02*
X136995952Y-109309200D01*
X136995952Y-109309200D02*
X136919762Y-109347295D01*
X136919762Y-109347295D02*
X136767381Y-109347295D01*
X136767381Y-109347295D02*
X136691190Y-109309200D01*
X136691190Y-109309200D02*
X136615000Y-109233009D01*
X136615000Y-109233009D02*
X136576904Y-109080628D01*
X136576904Y-109080628D02*
X136576904Y-108813961D01*
X136576904Y-108813961D02*
X136615000Y-108661580D01*
X136615000Y-108661580D02*
X136691190Y-108585390D01*
X136691190Y-108585390D02*
X136767381Y-108547295D01*
X116328372Y-86716494D02*
X116247560Y-86743431D01*
X116247560Y-86743431D02*
X116166748Y-86824243D01*
X116166748Y-86824243D02*
X116112873Y-86931993D01*
X116112873Y-86931993D02*
X116112873Y-87039742D01*
X116112873Y-87039742D02*
X116139810Y-87120555D01*
X116139810Y-87120555D02*
X116220623Y-87255242D01*
X116220623Y-87255242D02*
X116301435Y-87336054D01*
X116301435Y-87336054D02*
X116436122Y-87416866D01*
X116436122Y-87416866D02*
X116516934Y-87443803D01*
X116516934Y-87443803D02*
X116624684Y-87443803D01*
X116624684Y-87443803D02*
X116732433Y-87389929D01*
X116732433Y-87389929D02*
X116786308Y-87336054D01*
X116786308Y-87336054D02*
X116840183Y-87228304D01*
X116840183Y-87228304D02*
X116840183Y-87174429D01*
X116840183Y-87174429D02*
X116651621Y-86985868D01*
X116651621Y-86985868D02*
X116543871Y-87093617D01*
X117136494Y-86985868D02*
X116570809Y-86420182D01*
X116570809Y-86420182D02*
X116786308Y-86204683D01*
X116786308Y-86204683D02*
X116867120Y-86177746D01*
X116867120Y-86177746D02*
X116920995Y-86177746D01*
X116920995Y-86177746D02*
X117001807Y-86204683D01*
X117001807Y-86204683D02*
X117082619Y-86285495D01*
X117082619Y-86285495D02*
X117109557Y-86366307D01*
X117109557Y-86366307D02*
X117109557Y-86420182D01*
X117109557Y-86420182D02*
X117082619Y-86500994D01*
X117082619Y-86500994D02*
X116867120Y-86716494D01*
X117729117Y-86393245D02*
X117836867Y-86285495D01*
X117836867Y-86285495D02*
X117863804Y-86204683D01*
X117863804Y-86204683D02*
X117863804Y-86150808D01*
X117863804Y-86150808D02*
X117836867Y-86016121D01*
X117836867Y-86016121D02*
X117756054Y-85881434D01*
X117756054Y-85881434D02*
X117540555Y-85665935D01*
X117540555Y-85665935D02*
X117459743Y-85638998D01*
X117459743Y-85638998D02*
X117405868Y-85638998D01*
X117405868Y-85638998D02*
X117325056Y-85665935D01*
X117325056Y-85665935D02*
X117217306Y-85773685D01*
X117217306Y-85773685D02*
X117190369Y-85854497D01*
X117190369Y-85854497D02*
X117190369Y-85908372D01*
X117190369Y-85908372D02*
X117217306Y-85989184D01*
X117217306Y-85989184D02*
X117351993Y-86123871D01*
X117351993Y-86123871D02*
X117432806Y-86150808D01*
X117432806Y-86150808D02*
X117486680Y-86150808D01*
X117486680Y-86150808D02*
X117567493Y-86123871D01*
X117567493Y-86123871D02*
X117675242Y-86016121D01*
X117675242Y-86016121D02*
X117702180Y-85935309D01*
X117702180Y-85935309D02*
X117702180Y-85881434D01*
X117702180Y-85881434D02*
X117675242Y-85800622D01*
X141912998Y-74031868D02*
X141832185Y-74058805D01*
X141832185Y-74058805D02*
X141751373Y-74139618D01*
X141751373Y-74139618D02*
X141697498Y-74247367D01*
X141697498Y-74247367D02*
X141697498Y-74355117D01*
X141697498Y-74355117D02*
X141724436Y-74435929D01*
X141724436Y-74435929D02*
X141805248Y-74570616D01*
X141805248Y-74570616D02*
X141886060Y-74651428D01*
X141886060Y-74651428D02*
X142020747Y-74732241D01*
X142020747Y-74732241D02*
X142101560Y-74759178D01*
X142101560Y-74759178D02*
X142209309Y-74759178D01*
X142209309Y-74759178D02*
X142317059Y-74705303D01*
X142317059Y-74705303D02*
X142370934Y-74651428D01*
X142370934Y-74651428D02*
X142424808Y-74543679D01*
X142424808Y-74543679D02*
X142424808Y-74489804D01*
X142424808Y-74489804D02*
X142236247Y-74301242D01*
X142236247Y-74301242D02*
X142128497Y-74408992D01*
X142721120Y-74301242D02*
X142155434Y-73735557D01*
X142155434Y-73735557D02*
X142370934Y-73520057D01*
X142370934Y-73520057D02*
X142451746Y-73493120D01*
X142451746Y-73493120D02*
X142505621Y-73493120D01*
X142505621Y-73493120D02*
X142586433Y-73520057D01*
X142586433Y-73520057D02*
X142667245Y-73600870D01*
X142667245Y-73600870D02*
X142694182Y-73681682D01*
X142694182Y-73681682D02*
X142694182Y-73735557D01*
X142694182Y-73735557D02*
X142667245Y-73816369D01*
X142667245Y-73816369D02*
X142451746Y-74031868D01*
X142748057Y-73250683D02*
X142748057Y-73196809D01*
X142748057Y-73196809D02*
X142774995Y-73115996D01*
X142774995Y-73115996D02*
X142909682Y-72981309D01*
X142909682Y-72981309D02*
X142990494Y-72954372D01*
X142990494Y-72954372D02*
X143044369Y-72954372D01*
X143044369Y-72954372D02*
X143125181Y-72981309D01*
X143125181Y-72981309D02*
X143179056Y-73035184D01*
X143179056Y-73035184D02*
X143232930Y-73142934D01*
X143232930Y-73142934D02*
X143232930Y-73789431D01*
X143232930Y-73789431D02*
X143583117Y-73439245D01*
X143583117Y-72792747D02*
X143502305Y-72819685D01*
X143502305Y-72819685D02*
X143448430Y-72819685D01*
X143448430Y-72819685D02*
X143367618Y-72792747D01*
X143367618Y-72792747D02*
X143340680Y-72765810D01*
X143340680Y-72765810D02*
X143313743Y-72684998D01*
X143313743Y-72684998D02*
X143313743Y-72631123D01*
X143313743Y-72631123D02*
X143340680Y-72550311D01*
X143340680Y-72550311D02*
X143448430Y-72442561D01*
X143448430Y-72442561D02*
X143529242Y-72415624D01*
X143529242Y-72415624D02*
X143583117Y-72415624D01*
X143583117Y-72415624D02*
X143663929Y-72442561D01*
X143663929Y-72442561D02*
X143690866Y-72469499D01*
X143690866Y-72469499D02*
X143717804Y-72550311D01*
X143717804Y-72550311D02*
X143717804Y-72604186D01*
X143717804Y-72604186D02*
X143690866Y-72684998D01*
X143690866Y-72684998D02*
X143583117Y-72792747D01*
X143583117Y-72792747D02*
X143556179Y-72873560D01*
X143556179Y-72873560D02*
X143556179Y-72927434D01*
X143556179Y-72927434D02*
X143583117Y-73008247D01*
X143583117Y-73008247D02*
X143690866Y-73115996D01*
X143690866Y-73115996D02*
X143771679Y-73142934D01*
X143771679Y-73142934D02*
X143825553Y-73142934D01*
X143825553Y-73142934D02*
X143906366Y-73115996D01*
X143906366Y-73115996D02*
X144014115Y-73008247D01*
X144014115Y-73008247D02*
X144041053Y-72927434D01*
X144041053Y-72927434D02*
X144041053Y-72873560D01*
X144041053Y-72873560D02*
X144014115Y-72792747D01*
X144014115Y-72792747D02*
X143906366Y-72684998D01*
X143906366Y-72684998D02*
X143825553Y-72658060D01*
X143825553Y-72658060D02*
X143771679Y-72658060D01*
X143771679Y-72658060D02*
X143690866Y-72684998D01*
X116301435Y-76583431D02*
X116220623Y-76610368D01*
X116220623Y-76610368D02*
X116139811Y-76691180D01*
X116139811Y-76691180D02*
X116085936Y-76798930D01*
X116085936Y-76798930D02*
X116085936Y-76906680D01*
X116085936Y-76906680D02*
X116112873Y-76987492D01*
X116112873Y-76987492D02*
X116193685Y-77122179D01*
X116193685Y-77122179D02*
X116274498Y-77202991D01*
X116274498Y-77202991D02*
X116409185Y-77283803D01*
X116409185Y-77283803D02*
X116489997Y-77310741D01*
X116489997Y-77310741D02*
X116597746Y-77310741D01*
X116597746Y-77310741D02*
X116705496Y-77256866D01*
X116705496Y-77256866D02*
X116759371Y-77202991D01*
X116759371Y-77202991D02*
X116813246Y-77095241D01*
X116813246Y-77095241D02*
X116813246Y-77041367D01*
X116813246Y-77041367D02*
X116624684Y-76852805D01*
X116624684Y-76852805D02*
X116516934Y-76960554D01*
X117109557Y-76852805D02*
X116543872Y-76287119D01*
X116543872Y-76287119D02*
X117432806Y-76529556D01*
X117432806Y-76529556D02*
X116867120Y-75963871D01*
X117702180Y-76260182D02*
X117136494Y-75694497D01*
X117136494Y-75694497D02*
X117271181Y-75559810D01*
X117271181Y-75559810D02*
X117378931Y-75505935D01*
X117378931Y-75505935D02*
X117486680Y-75505935D01*
X117486680Y-75505935D02*
X117567493Y-75532872D01*
X117567493Y-75532872D02*
X117702180Y-75613685D01*
X117702180Y-75613685D02*
X117782992Y-75694497D01*
X117782992Y-75694497D02*
X117863804Y-75829184D01*
X117863804Y-75829184D02*
X117890741Y-75909996D01*
X117890741Y-75909996D02*
X117890741Y-76017746D01*
X117890741Y-76017746D02*
X117836867Y-76125495D01*
X117836867Y-76125495D02*
X117702180Y-76260182D01*
X141901435Y-89283431D02*
X141820623Y-89310368D01*
X141820623Y-89310368D02*
X141739811Y-89391180D01*
X141739811Y-89391180D02*
X141685936Y-89498930D01*
X141685936Y-89498930D02*
X141685936Y-89606680D01*
X141685936Y-89606680D02*
X141712873Y-89687492D01*
X141712873Y-89687492D02*
X141793685Y-89822179D01*
X141793685Y-89822179D02*
X141874498Y-89902991D01*
X141874498Y-89902991D02*
X142009185Y-89983803D01*
X142009185Y-89983803D02*
X142089997Y-90010741D01*
X142089997Y-90010741D02*
X142197746Y-90010741D01*
X142197746Y-90010741D02*
X142305496Y-89956866D01*
X142305496Y-89956866D02*
X142359371Y-89902991D01*
X142359371Y-89902991D02*
X142413246Y-89795241D01*
X142413246Y-89795241D02*
X142413246Y-89741367D01*
X142413246Y-89741367D02*
X142224684Y-89552805D01*
X142224684Y-89552805D02*
X142116934Y-89660554D01*
X142709557Y-89552805D02*
X142143872Y-88987119D01*
X142143872Y-88987119D02*
X143032806Y-89229556D01*
X143032806Y-89229556D02*
X142467120Y-88663871D01*
X143302180Y-88960182D02*
X142736494Y-88394497D01*
X142736494Y-88394497D02*
X142871181Y-88259810D01*
X142871181Y-88259810D02*
X142978931Y-88205935D01*
X142978931Y-88205935D02*
X143086680Y-88205935D01*
X143086680Y-88205935D02*
X143167493Y-88232872D01*
X143167493Y-88232872D02*
X143302180Y-88313685D01*
X143302180Y-88313685D02*
X143382992Y-88394497D01*
X143382992Y-88394497D02*
X143463804Y-88529184D01*
X143463804Y-88529184D02*
X143490741Y-88609996D01*
X143490741Y-88609996D02*
X143490741Y-88717746D01*
X143490741Y-88717746D02*
X143436867Y-88825495D01*
X143436867Y-88825495D02*
X143302180Y-88960182D01*
X141912998Y-107305868D02*
X141832185Y-107332805D01*
X141832185Y-107332805D02*
X141751373Y-107413618D01*
X141751373Y-107413618D02*
X141697498Y-107521367D01*
X141697498Y-107521367D02*
X141697498Y-107629117D01*
X141697498Y-107629117D02*
X141724436Y-107709929D01*
X141724436Y-107709929D02*
X141805248Y-107844616D01*
X141805248Y-107844616D02*
X141886060Y-107925428D01*
X141886060Y-107925428D02*
X142020747Y-108006241D01*
X142020747Y-108006241D02*
X142101560Y-108033178D01*
X142101560Y-108033178D02*
X142209309Y-108033178D01*
X142209309Y-108033178D02*
X142317059Y-107979303D01*
X142317059Y-107979303D02*
X142370934Y-107925428D01*
X142370934Y-107925428D02*
X142424808Y-107817679D01*
X142424808Y-107817679D02*
X142424808Y-107763804D01*
X142424808Y-107763804D02*
X142236247Y-107575242D01*
X142236247Y-107575242D02*
X142128497Y-107682992D01*
X142721120Y-107575242D02*
X142155434Y-107009557D01*
X142155434Y-107009557D02*
X142370934Y-106794057D01*
X142370934Y-106794057D02*
X142451746Y-106767120D01*
X142451746Y-106767120D02*
X142505621Y-106767120D01*
X142505621Y-106767120D02*
X142586433Y-106794057D01*
X142586433Y-106794057D02*
X142667245Y-106874870D01*
X142667245Y-106874870D02*
X142694182Y-106955682D01*
X142694182Y-106955682D02*
X142694182Y-107009557D01*
X142694182Y-107009557D02*
X142667245Y-107090369D01*
X142667245Y-107090369D02*
X142451746Y-107305868D01*
X143583117Y-106713245D02*
X143259868Y-107036494D01*
X143421492Y-106874870D02*
X142855807Y-106309184D01*
X142855807Y-106309184D02*
X142882744Y-106443871D01*
X142882744Y-106443871D02*
X142882744Y-106551621D01*
X142882744Y-106551621D02*
X142855807Y-106632433D01*
X143502305Y-105662686D02*
X143394555Y-105770436D01*
X143394555Y-105770436D02*
X143367618Y-105851248D01*
X143367618Y-105851248D02*
X143367618Y-105905123D01*
X143367618Y-105905123D02*
X143394555Y-106039810D01*
X143394555Y-106039810D02*
X143475367Y-106174497D01*
X143475367Y-106174497D02*
X143690866Y-106389996D01*
X143690866Y-106389996D02*
X143771679Y-106416934D01*
X143771679Y-106416934D02*
X143825553Y-106416934D01*
X143825553Y-106416934D02*
X143906366Y-106389996D01*
X143906366Y-106389996D02*
X144014115Y-106282247D01*
X144014115Y-106282247D02*
X144041053Y-106201434D01*
X144041053Y-106201434D02*
X144041053Y-106147560D01*
X144041053Y-106147560D02*
X144014115Y-106066747D01*
X144014115Y-106066747D02*
X143879428Y-105932060D01*
X143879428Y-105932060D02*
X143798616Y-105905123D01*
X143798616Y-105905123D02*
X143744741Y-105905123D01*
X143744741Y-105905123D02*
X143663929Y-105932060D01*
X143663929Y-105932060D02*
X143556179Y-106039810D01*
X143556179Y-106039810D02*
X143529242Y-106120622D01*
X143529242Y-106120622D02*
X143529242Y-106174497D01*
X143529242Y-106174497D02*
X143556179Y-106255309D01*
X116328372Y-84176494D02*
X116247560Y-84203431D01*
X116247560Y-84203431D02*
X116166748Y-84284243D01*
X116166748Y-84284243D02*
X116112873Y-84391993D01*
X116112873Y-84391993D02*
X116112873Y-84499742D01*
X116112873Y-84499742D02*
X116139810Y-84580555D01*
X116139810Y-84580555D02*
X116220623Y-84715242D01*
X116220623Y-84715242D02*
X116301435Y-84796054D01*
X116301435Y-84796054D02*
X116436122Y-84876866D01*
X116436122Y-84876866D02*
X116516934Y-84903803D01*
X116516934Y-84903803D02*
X116624684Y-84903803D01*
X116624684Y-84903803D02*
X116732433Y-84849929D01*
X116732433Y-84849929D02*
X116786308Y-84796054D01*
X116786308Y-84796054D02*
X116840183Y-84688304D01*
X116840183Y-84688304D02*
X116840183Y-84634429D01*
X116840183Y-84634429D02*
X116651621Y-84445868D01*
X116651621Y-84445868D02*
X116543871Y-84553617D01*
X117136494Y-84445868D02*
X116570809Y-83880182D01*
X116570809Y-83880182D02*
X116786308Y-83664683D01*
X116786308Y-83664683D02*
X116867120Y-83637746D01*
X116867120Y-83637746D02*
X116920995Y-83637746D01*
X116920995Y-83637746D02*
X117001807Y-83664683D01*
X117001807Y-83664683D02*
X117082619Y-83745495D01*
X117082619Y-83745495D02*
X117109557Y-83826307D01*
X117109557Y-83826307D02*
X117109557Y-83880182D01*
X117109557Y-83880182D02*
X117082619Y-83960994D01*
X117082619Y-83960994D02*
X116867120Y-84176494D01*
X117459743Y-83476121D02*
X117378931Y-83503059D01*
X117378931Y-83503059D02*
X117325056Y-83503059D01*
X117325056Y-83503059D02*
X117244244Y-83476121D01*
X117244244Y-83476121D02*
X117217306Y-83449184D01*
X117217306Y-83449184D02*
X117190369Y-83368372D01*
X117190369Y-83368372D02*
X117190369Y-83314497D01*
X117190369Y-83314497D02*
X117217306Y-83233685D01*
X117217306Y-83233685D02*
X117325056Y-83125935D01*
X117325056Y-83125935D02*
X117405868Y-83098998D01*
X117405868Y-83098998D02*
X117459743Y-83098998D01*
X117459743Y-83098998D02*
X117540555Y-83125935D01*
X117540555Y-83125935D02*
X117567493Y-83152872D01*
X117567493Y-83152872D02*
X117594430Y-83233685D01*
X117594430Y-83233685D02*
X117594430Y-83287559D01*
X117594430Y-83287559D02*
X117567493Y-83368372D01*
X117567493Y-83368372D02*
X117459743Y-83476121D01*
X117459743Y-83476121D02*
X117432806Y-83556933D01*
X117432806Y-83556933D02*
X117432806Y-83610808D01*
X117432806Y-83610808D02*
X117459743Y-83691620D01*
X117459743Y-83691620D02*
X117567493Y-83799370D01*
X117567493Y-83799370D02*
X117648305Y-83826307D01*
X117648305Y-83826307D02*
X117702180Y-83826307D01*
X117702180Y-83826307D02*
X117782992Y-83799370D01*
X117782992Y-83799370D02*
X117890741Y-83691620D01*
X117890741Y-83691620D02*
X117917679Y-83610808D01*
X117917679Y-83610808D02*
X117917679Y-83556933D01*
X117917679Y-83556933D02*
X117890741Y-83476121D01*
X117890741Y-83476121D02*
X117782992Y-83368372D01*
X117782992Y-83368372D02*
X117702180Y-83341434D01*
X117702180Y-83341434D02*
X117648305Y-83341434D01*
X117648305Y-83341434D02*
X117567493Y-83368372D01*
X141705123Y-69275868D02*
X142055309Y-68925682D01*
X142055309Y-68925682D02*
X142082247Y-69329743D01*
X142082247Y-69329743D02*
X142163059Y-69248931D01*
X142163059Y-69248931D02*
X142243871Y-69221993D01*
X142243871Y-69221993D02*
X142297746Y-69221993D01*
X142297746Y-69221993D02*
X142378558Y-69248931D01*
X142378558Y-69248931D02*
X142513245Y-69383618D01*
X142513245Y-69383618D02*
X142540182Y-69464430D01*
X142540182Y-69464430D02*
X142540182Y-69518305D01*
X142540182Y-69518305D02*
X142513245Y-69599117D01*
X142513245Y-69599117D02*
X142351621Y-69760741D01*
X142351621Y-69760741D02*
X142270808Y-69787679D01*
X142270808Y-69787679D02*
X142216934Y-69787679D01*
X142216934Y-68764057D02*
X142971181Y-69141181D01*
X142971181Y-69141181D02*
X142594057Y-68386934D01*
X142728744Y-68252247D02*
X143078930Y-67902061D01*
X143078930Y-67902061D02*
X143105868Y-68306122D01*
X143105868Y-68306122D02*
X143186680Y-68225309D01*
X143186680Y-68225309D02*
X143267492Y-68198372D01*
X143267492Y-68198372D02*
X143321367Y-68198372D01*
X143321367Y-68198372D02*
X143402179Y-68225309D01*
X143402179Y-68225309D02*
X143536866Y-68359996D01*
X143536866Y-68359996D02*
X143563804Y-68440809D01*
X143563804Y-68440809D02*
X143563804Y-68494683D01*
X143563804Y-68494683D02*
X143536866Y-68575496D01*
X143536866Y-68575496D02*
X143375242Y-68737120D01*
X143375242Y-68737120D02*
X143294430Y-68764057D01*
X143294430Y-68764057D02*
X143240555Y-68764057D01*
X141737407Y-66743584D02*
X142087593Y-66393398D01*
X142087593Y-66393398D02*
X142114531Y-66797459D01*
X142114531Y-66797459D02*
X142195343Y-66716646D01*
X142195343Y-66716646D02*
X142276155Y-66689709D01*
X142276155Y-66689709D02*
X142330030Y-66689709D01*
X142330030Y-66689709D02*
X142410842Y-66716646D01*
X142410842Y-66716646D02*
X142545529Y-66851333D01*
X142545529Y-66851333D02*
X142572467Y-66932146D01*
X142572467Y-66932146D02*
X142572467Y-66986020D01*
X142572467Y-66986020D02*
X142545529Y-67066833D01*
X142545529Y-67066833D02*
X142383905Y-67228457D01*
X142383905Y-67228457D02*
X142303093Y-67255394D01*
X142303093Y-67255394D02*
X142249218Y-67255394D01*
X142249218Y-66231773D02*
X143003465Y-66608897D01*
X143003465Y-66608897D02*
X142626342Y-65854649D01*
X142761028Y-65719963D02*
X143111215Y-65369776D01*
X143111215Y-65369776D02*
X143138152Y-65773837D01*
X143138152Y-65773837D02*
X143218964Y-65693025D01*
X143218964Y-65693025D02*
X143299776Y-65666088D01*
X143299776Y-65666088D02*
X143353651Y-65666088D01*
X143353651Y-65666088D02*
X143434464Y-65693025D01*
X143434464Y-65693025D02*
X143569151Y-65827712D01*
X143569151Y-65827712D02*
X143596088Y-65908524D01*
X143596088Y-65908524D02*
X143596088Y-65962399D01*
X143596088Y-65962399D02*
X143569151Y-66043211D01*
X143569151Y-66043211D02*
X143407526Y-66204836D01*
X143407526Y-66204836D02*
X143326714Y-66231773D01*
X143326714Y-66231773D02*
X143272839Y-66231773D01*
X143838525Y-65881587D02*
X144269523Y-65450588D01*
X144054024Y-64965715D02*
X144242586Y-64777153D01*
X144619709Y-64992652D02*
X144350335Y-65262026D01*
X144350335Y-65262026D02*
X143784650Y-64696341D01*
X143784650Y-64696341D02*
X144054024Y-64426967D01*
X144862146Y-64750215D02*
X144296461Y-64184530D01*
X144296461Y-64184530D02*
X145185395Y-64426967D01*
X145185395Y-64426967D02*
X144619710Y-63861281D01*
X122305475Y-109309200D02*
X122419761Y-109347295D01*
X122419761Y-109347295D02*
X122610237Y-109347295D01*
X122610237Y-109347295D02*
X122686428Y-109309200D01*
X122686428Y-109309200D02*
X122724523Y-109271104D01*
X122724523Y-109271104D02*
X122762618Y-109194914D01*
X122762618Y-109194914D02*
X122762618Y-109118723D01*
X122762618Y-109118723D02*
X122724523Y-109042533D01*
X122724523Y-109042533D02*
X122686428Y-109004438D01*
X122686428Y-109004438D02*
X122610237Y-108966342D01*
X122610237Y-108966342D02*
X122457856Y-108928247D01*
X122457856Y-108928247D02*
X122381666Y-108890152D01*
X122381666Y-108890152D02*
X122343571Y-108852057D01*
X122343571Y-108852057D02*
X122305475Y-108775866D01*
X122305475Y-108775866D02*
X122305475Y-108699676D01*
X122305475Y-108699676D02*
X122343571Y-108623485D01*
X122343571Y-108623485D02*
X122381666Y-108585390D01*
X122381666Y-108585390D02*
X122457856Y-108547295D01*
X122457856Y-108547295D02*
X122648333Y-108547295D01*
X122648333Y-108547295D02*
X122762618Y-108585390D01*
X123029285Y-108547295D02*
X123219761Y-109347295D01*
X123219761Y-109347295D02*
X123372142Y-108775866D01*
X123372142Y-108775866D02*
X123524523Y-109347295D01*
X123524523Y-109347295D02*
X123715000Y-108547295D01*
X124476905Y-109271104D02*
X124438809Y-109309200D01*
X124438809Y-109309200D02*
X124324524Y-109347295D01*
X124324524Y-109347295D02*
X124248333Y-109347295D01*
X124248333Y-109347295D02*
X124134047Y-109309200D01*
X124134047Y-109309200D02*
X124057857Y-109233009D01*
X124057857Y-109233009D02*
X124019762Y-109156819D01*
X124019762Y-109156819D02*
X123981666Y-109004438D01*
X123981666Y-109004438D02*
X123981666Y-108890152D01*
X123981666Y-108890152D02*
X124019762Y-108737771D01*
X124019762Y-108737771D02*
X124057857Y-108661580D01*
X124057857Y-108661580D02*
X124134047Y-108585390D01*
X124134047Y-108585390D02*
X124248333Y-108547295D01*
X124248333Y-108547295D02*
X124324524Y-108547295D01*
X124324524Y-108547295D02*
X124438809Y-108585390D01*
X124438809Y-108585390D02*
X124476905Y-108623485D01*
X125200714Y-109347295D02*
X124819762Y-109347295D01*
X124819762Y-109347295D02*
X124819762Y-108547295D01*
X125467381Y-109347295D02*
X125467381Y-108547295D01*
X125924524Y-109347295D02*
X125581666Y-108890152D01*
X125924524Y-108547295D02*
X125467381Y-109004438D01*
X152617998Y-85805868D02*
X152537185Y-85832805D01*
X152537185Y-85832805D02*
X152456373Y-85913618D01*
X152456373Y-85913618D02*
X152402498Y-86021367D01*
X152402498Y-86021367D02*
X152402498Y-86129117D01*
X152402498Y-86129117D02*
X152429436Y-86209929D01*
X152429436Y-86209929D02*
X152510248Y-86344616D01*
X152510248Y-86344616D02*
X152591060Y-86425428D01*
X152591060Y-86425428D02*
X152725747Y-86506241D01*
X152725747Y-86506241D02*
X152806560Y-86533178D01*
X152806560Y-86533178D02*
X152914309Y-86533178D01*
X152914309Y-86533178D02*
X153022059Y-86479303D01*
X153022059Y-86479303D02*
X153075934Y-86425428D01*
X153075934Y-86425428D02*
X153129808Y-86317679D01*
X153129808Y-86317679D02*
X153129808Y-86263804D01*
X153129808Y-86263804D02*
X152941247Y-86075242D01*
X152941247Y-86075242D02*
X152833497Y-86182992D01*
X153426120Y-86075242D02*
X152860434Y-85509557D01*
X152860434Y-85509557D02*
X153075934Y-85294057D01*
X153075934Y-85294057D02*
X153156746Y-85267120D01*
X153156746Y-85267120D02*
X153210621Y-85267120D01*
X153210621Y-85267120D02*
X153291433Y-85294057D01*
X153291433Y-85294057D02*
X153372245Y-85374870D01*
X153372245Y-85374870D02*
X153399182Y-85455682D01*
X153399182Y-85455682D02*
X153399182Y-85509557D01*
X153399182Y-85509557D02*
X153372245Y-85590369D01*
X153372245Y-85590369D02*
X153156746Y-85805868D01*
X153453057Y-85024683D02*
X153453057Y-84970809D01*
X153453057Y-84970809D02*
X153479995Y-84889996D01*
X153479995Y-84889996D02*
X153614682Y-84755309D01*
X153614682Y-84755309D02*
X153695494Y-84728372D01*
X153695494Y-84728372D02*
X153749369Y-84728372D01*
X153749369Y-84728372D02*
X153830181Y-84755309D01*
X153830181Y-84755309D02*
X153884056Y-84809184D01*
X153884056Y-84809184D02*
X153937930Y-84916934D01*
X153937930Y-84916934D02*
X153937930Y-85563431D01*
X153937930Y-85563431D02*
X154288117Y-85213245D01*
X154207305Y-84162686D02*
X154099555Y-84270436D01*
X154099555Y-84270436D02*
X154072618Y-84351248D01*
X154072618Y-84351248D02*
X154072618Y-84405123D01*
X154072618Y-84405123D02*
X154099555Y-84539810D01*
X154099555Y-84539810D02*
X154180367Y-84674497D01*
X154180367Y-84674497D02*
X154395866Y-84889996D01*
X154395866Y-84889996D02*
X154476679Y-84916934D01*
X154476679Y-84916934D02*
X154530553Y-84916934D01*
X154530553Y-84916934D02*
X154611366Y-84889996D01*
X154611366Y-84889996D02*
X154719115Y-84782247D01*
X154719115Y-84782247D02*
X154746053Y-84701434D01*
X154746053Y-84701434D02*
X154746053Y-84647560D01*
X154746053Y-84647560D02*
X154719115Y-84566747D01*
X154719115Y-84566747D02*
X154584428Y-84432060D01*
X154584428Y-84432060D02*
X154503616Y-84405123D01*
X154503616Y-84405123D02*
X154449741Y-84405123D01*
X154449741Y-84405123D02*
X154368929Y-84432060D01*
X154368929Y-84432060D02*
X154261179Y-84539810D01*
X154261179Y-84539810D02*
X154234242Y-84620622D01*
X154234242Y-84620622D02*
X154234242Y-84674497D01*
X154234242Y-84674497D02*
X154261179Y-84755309D01*
X141912998Y-104765868D02*
X141832185Y-104792805D01*
X141832185Y-104792805D02*
X141751373Y-104873618D01*
X141751373Y-104873618D02*
X141697498Y-104981367D01*
X141697498Y-104981367D02*
X141697498Y-105089117D01*
X141697498Y-105089117D02*
X141724436Y-105169929D01*
X141724436Y-105169929D02*
X141805248Y-105304616D01*
X141805248Y-105304616D02*
X141886060Y-105385428D01*
X141886060Y-105385428D02*
X142020747Y-105466241D01*
X142020747Y-105466241D02*
X142101560Y-105493178D01*
X142101560Y-105493178D02*
X142209309Y-105493178D01*
X142209309Y-105493178D02*
X142317059Y-105439303D01*
X142317059Y-105439303D02*
X142370934Y-105385428D01*
X142370934Y-105385428D02*
X142424808Y-105277679D01*
X142424808Y-105277679D02*
X142424808Y-105223804D01*
X142424808Y-105223804D02*
X142236247Y-105035242D01*
X142236247Y-105035242D02*
X142128497Y-105142992D01*
X142721120Y-105035242D02*
X142155434Y-104469557D01*
X142155434Y-104469557D02*
X142370934Y-104254057D01*
X142370934Y-104254057D02*
X142451746Y-104227120D01*
X142451746Y-104227120D02*
X142505621Y-104227120D01*
X142505621Y-104227120D02*
X142586433Y-104254057D01*
X142586433Y-104254057D02*
X142667245Y-104334870D01*
X142667245Y-104334870D02*
X142694182Y-104415682D01*
X142694182Y-104415682D02*
X142694182Y-104469557D01*
X142694182Y-104469557D02*
X142667245Y-104550369D01*
X142667245Y-104550369D02*
X142451746Y-104765868D01*
X143583117Y-104173245D02*
X143259868Y-104496494D01*
X143421492Y-104334870D02*
X142855807Y-103769184D01*
X142855807Y-103769184D02*
X142882744Y-103903871D01*
X142882744Y-103903871D02*
X142882744Y-104011621D01*
X142882744Y-104011621D02*
X142855807Y-104092433D01*
X143205993Y-103418998D02*
X143583117Y-103041874D01*
X143583117Y-103041874D02*
X143906366Y-103849996D01*
X115804998Y-107305868D02*
X115724185Y-107332805D01*
X115724185Y-107332805D02*
X115643373Y-107413618D01*
X115643373Y-107413618D02*
X115589498Y-107521367D01*
X115589498Y-107521367D02*
X115589498Y-107629117D01*
X115589498Y-107629117D02*
X115616436Y-107709929D01*
X115616436Y-107709929D02*
X115697248Y-107844616D01*
X115697248Y-107844616D02*
X115778060Y-107925428D01*
X115778060Y-107925428D02*
X115912747Y-108006241D01*
X115912747Y-108006241D02*
X115993560Y-108033178D01*
X115993560Y-108033178D02*
X116101309Y-108033178D01*
X116101309Y-108033178D02*
X116209059Y-107979303D01*
X116209059Y-107979303D02*
X116262934Y-107925428D01*
X116262934Y-107925428D02*
X116316808Y-107817679D01*
X116316808Y-107817679D02*
X116316808Y-107763804D01*
X116316808Y-107763804D02*
X116128247Y-107575242D01*
X116128247Y-107575242D02*
X116020497Y-107682992D01*
X116613120Y-107575242D02*
X116047434Y-107009557D01*
X116047434Y-107009557D02*
X116262934Y-106794057D01*
X116262934Y-106794057D02*
X116343746Y-106767120D01*
X116343746Y-106767120D02*
X116397621Y-106767120D01*
X116397621Y-106767120D02*
X116478433Y-106794057D01*
X116478433Y-106794057D02*
X116559245Y-106874870D01*
X116559245Y-106874870D02*
X116586182Y-106955682D01*
X116586182Y-106955682D02*
X116586182Y-107009557D01*
X116586182Y-107009557D02*
X116559245Y-107090369D01*
X116559245Y-107090369D02*
X116343746Y-107305868D01*
X117475117Y-106713245D02*
X117151868Y-107036494D01*
X117313492Y-106874870D02*
X116747807Y-106309184D01*
X116747807Y-106309184D02*
X116774744Y-106443871D01*
X116774744Y-106443871D02*
X116774744Y-106551621D01*
X116774744Y-106551621D02*
X116747807Y-106632433D01*
X117421242Y-105635749D02*
X117151868Y-105905123D01*
X117151868Y-105905123D02*
X117394305Y-106201434D01*
X117394305Y-106201434D02*
X117394305Y-106147560D01*
X117394305Y-106147560D02*
X117421242Y-106066747D01*
X117421242Y-106066747D02*
X117555929Y-105932060D01*
X117555929Y-105932060D02*
X117636741Y-105905123D01*
X117636741Y-105905123D02*
X117690616Y-105905123D01*
X117690616Y-105905123D02*
X117771428Y-105932060D01*
X117771428Y-105932060D02*
X117906115Y-106066747D01*
X117906115Y-106066747D02*
X117933053Y-106147560D01*
X117933053Y-106147560D02*
X117933053Y-106201434D01*
X117933053Y-106201434D02*
X117906115Y-106282247D01*
X117906115Y-106282247D02*
X117771428Y-106416934D01*
X117771428Y-106416934D02*
X117690616Y-106443871D01*
X117690616Y-106443871D02*
X117636741Y-106443871D01*
X116428372Y-81606494D02*
X116347560Y-81633431D01*
X116347560Y-81633431D02*
X116266748Y-81714243D01*
X116266748Y-81714243D02*
X116212873Y-81821993D01*
X116212873Y-81821993D02*
X116212873Y-81929742D01*
X116212873Y-81929742D02*
X116239810Y-82010555D01*
X116239810Y-82010555D02*
X116320623Y-82145242D01*
X116320623Y-82145242D02*
X116401435Y-82226054D01*
X116401435Y-82226054D02*
X116536122Y-82306866D01*
X116536122Y-82306866D02*
X116616934Y-82333803D01*
X116616934Y-82333803D02*
X116724684Y-82333803D01*
X116724684Y-82333803D02*
X116832433Y-82279929D01*
X116832433Y-82279929D02*
X116886308Y-82226054D01*
X116886308Y-82226054D02*
X116940183Y-82118304D01*
X116940183Y-82118304D02*
X116940183Y-82064429D01*
X116940183Y-82064429D02*
X116751621Y-81875868D01*
X116751621Y-81875868D02*
X116643871Y-81983617D01*
X117236494Y-81875868D02*
X116670809Y-81310182D01*
X116670809Y-81310182D02*
X116886308Y-81094683D01*
X116886308Y-81094683D02*
X116967120Y-81067746D01*
X116967120Y-81067746D02*
X117020995Y-81067746D01*
X117020995Y-81067746D02*
X117101807Y-81094683D01*
X117101807Y-81094683D02*
X117182619Y-81175495D01*
X117182619Y-81175495D02*
X117209557Y-81256307D01*
X117209557Y-81256307D02*
X117209557Y-81310182D01*
X117209557Y-81310182D02*
X117182619Y-81390994D01*
X117182619Y-81390994D02*
X116967120Y-81606494D01*
X117182619Y-80798372D02*
X117559743Y-80421248D01*
X117559743Y-80421248D02*
X117882992Y-81229370D01*
X116328372Y-71476494D02*
X116247560Y-71503431D01*
X116247560Y-71503431D02*
X116166748Y-71584243D01*
X116166748Y-71584243D02*
X116112873Y-71691993D01*
X116112873Y-71691993D02*
X116112873Y-71799742D01*
X116112873Y-71799742D02*
X116139810Y-71880555D01*
X116139810Y-71880555D02*
X116220623Y-72015242D01*
X116220623Y-72015242D02*
X116301435Y-72096054D01*
X116301435Y-72096054D02*
X116436122Y-72176866D01*
X116436122Y-72176866D02*
X116516934Y-72203803D01*
X116516934Y-72203803D02*
X116624684Y-72203803D01*
X116624684Y-72203803D02*
X116732433Y-72149929D01*
X116732433Y-72149929D02*
X116786308Y-72096054D01*
X116786308Y-72096054D02*
X116840183Y-71988304D01*
X116840183Y-71988304D02*
X116840183Y-71934429D01*
X116840183Y-71934429D02*
X116651621Y-71745868D01*
X116651621Y-71745868D02*
X116543871Y-71853617D01*
X117136494Y-71745868D02*
X116570809Y-71180182D01*
X116570809Y-71180182D02*
X116786308Y-70964683D01*
X116786308Y-70964683D02*
X116867120Y-70937746D01*
X116867120Y-70937746D02*
X116920995Y-70937746D01*
X116920995Y-70937746D02*
X117001807Y-70964683D01*
X117001807Y-70964683D02*
X117082619Y-71045495D01*
X117082619Y-71045495D02*
X117109557Y-71126307D01*
X117109557Y-71126307D02*
X117109557Y-71180182D01*
X117109557Y-71180182D02*
X117082619Y-71260994D01*
X117082619Y-71260994D02*
X116867120Y-71476494D01*
X117567493Y-70560622D02*
X117944616Y-70937746D01*
X117217306Y-70479810D02*
X117486680Y-71018558D01*
X117486680Y-71018558D02*
X117836867Y-70668372D01*
X141970064Y-72319049D02*
X142239438Y-72049675D01*
X142077813Y-72534549D02*
X141700690Y-71780301D01*
X141700690Y-71780301D02*
X142454937Y-72157425D01*
X142643499Y-71968863D02*
X142077813Y-71403178D01*
X142077813Y-71403178D02*
X142212500Y-71268491D01*
X142212500Y-71268491D02*
X142320250Y-71214616D01*
X142320250Y-71214616D02*
X142427999Y-71214616D01*
X142427999Y-71214616D02*
X142508812Y-71241553D01*
X142508812Y-71241553D02*
X142643499Y-71322366D01*
X142643499Y-71322366D02*
X142724311Y-71403178D01*
X142724311Y-71403178D02*
X142805123Y-71537865D01*
X142805123Y-71537865D02*
X142832060Y-71618677D01*
X142832060Y-71618677D02*
X142832060Y-71726427D01*
X142832060Y-71726427D02*
X142778186Y-71834176D01*
X142778186Y-71834176D02*
X142643499Y-71968863D01*
X143478558Y-71026054D02*
X143478558Y-71079929D01*
X143478558Y-71079929D02*
X143424683Y-71187679D01*
X143424683Y-71187679D02*
X143370808Y-71241553D01*
X143370808Y-71241553D02*
X143263059Y-71295428D01*
X143263059Y-71295428D02*
X143155309Y-71295428D01*
X143155309Y-71295428D02*
X143074497Y-71268491D01*
X143074497Y-71268491D02*
X142939810Y-71187679D01*
X142939810Y-71187679D02*
X142858998Y-71106866D01*
X142858998Y-71106866D02*
X142778186Y-70972179D01*
X142778186Y-70972179D02*
X142751248Y-70891367D01*
X142751248Y-70891367D02*
X142751248Y-70783618D01*
X142751248Y-70783618D02*
X142805123Y-70675868D01*
X142805123Y-70675868D02*
X142858998Y-70621993D01*
X142858998Y-70621993D02*
X142966747Y-70568118D01*
X142966747Y-70568118D02*
X143020622Y-70568118D01*
X143694057Y-71026054D02*
X144125056Y-70595056D01*
X143559370Y-69921621D02*
X144313618Y-70298744D01*
X144313618Y-70298744D02*
X143936494Y-69544497D01*
X145013990Y-69598372D02*
X144556054Y-69517560D01*
X144690741Y-69921621D02*
X144125056Y-69355935D01*
X144125056Y-69355935D02*
X144340555Y-69140436D01*
X144340555Y-69140436D02*
X144421367Y-69113499D01*
X144421367Y-69113499D02*
X144475242Y-69113499D01*
X144475242Y-69113499D02*
X144556054Y-69140436D01*
X144556054Y-69140436D02*
X144636866Y-69221248D01*
X144636866Y-69221248D02*
X144663804Y-69302061D01*
X144663804Y-69302061D02*
X144663804Y-69355935D01*
X144663804Y-69355935D02*
X144636866Y-69436748D01*
X144636866Y-69436748D02*
X144421367Y-69652247D01*
X144960115Y-69059624D02*
X145148677Y-68871062D01*
X145525800Y-69086561D02*
X145256426Y-69355935D01*
X145256426Y-69355935D02*
X144690741Y-68790250D01*
X144690741Y-68790250D02*
X144960115Y-68520876D01*
X145660488Y-68359251D02*
X145471926Y-68547813D01*
X145768237Y-68844125D02*
X145202552Y-68278439D01*
X145202552Y-68278439D02*
X145471926Y-68009065D01*
X115804998Y-99685868D02*
X115724185Y-99712805D01*
X115724185Y-99712805D02*
X115643373Y-99793618D01*
X115643373Y-99793618D02*
X115589498Y-99901367D01*
X115589498Y-99901367D02*
X115589498Y-100009117D01*
X115589498Y-100009117D02*
X115616436Y-100089929D01*
X115616436Y-100089929D02*
X115697248Y-100224616D01*
X115697248Y-100224616D02*
X115778060Y-100305428D01*
X115778060Y-100305428D02*
X115912747Y-100386241D01*
X115912747Y-100386241D02*
X115993560Y-100413178D01*
X115993560Y-100413178D02*
X116101309Y-100413178D01*
X116101309Y-100413178D02*
X116209059Y-100359303D01*
X116209059Y-100359303D02*
X116262934Y-100305428D01*
X116262934Y-100305428D02*
X116316808Y-100197679D01*
X116316808Y-100197679D02*
X116316808Y-100143804D01*
X116316808Y-100143804D02*
X116128247Y-99955242D01*
X116128247Y-99955242D02*
X116020497Y-100062992D01*
X116613120Y-99955242D02*
X116047434Y-99389557D01*
X116047434Y-99389557D02*
X116262934Y-99174057D01*
X116262934Y-99174057D02*
X116343746Y-99147120D01*
X116343746Y-99147120D02*
X116397621Y-99147120D01*
X116397621Y-99147120D02*
X116478433Y-99174057D01*
X116478433Y-99174057D02*
X116559245Y-99254870D01*
X116559245Y-99254870D02*
X116586182Y-99335682D01*
X116586182Y-99335682D02*
X116586182Y-99389557D01*
X116586182Y-99389557D02*
X116559245Y-99470369D01*
X116559245Y-99470369D02*
X116343746Y-99685868D01*
X117475117Y-99093245D02*
X117151868Y-99416494D01*
X117313492Y-99254870D02*
X116747807Y-98689184D01*
X116747807Y-98689184D02*
X116774744Y-98823871D01*
X116774744Y-98823871D02*
X116774744Y-98931621D01*
X116774744Y-98931621D02*
X116747807Y-99012433D01*
X117097993Y-98338998D02*
X117448179Y-97988812D01*
X117448179Y-97988812D02*
X117475117Y-98392873D01*
X117475117Y-98392873D02*
X117555929Y-98312060D01*
X117555929Y-98312060D02*
X117636741Y-98285123D01*
X117636741Y-98285123D02*
X117690616Y-98285123D01*
X117690616Y-98285123D02*
X117771428Y-98312060D01*
X117771428Y-98312060D02*
X117906115Y-98446747D01*
X117906115Y-98446747D02*
X117933053Y-98527560D01*
X117933053Y-98527560D02*
X117933053Y-98581434D01*
X117933053Y-98581434D02*
X117906115Y-98662247D01*
X117906115Y-98662247D02*
X117744491Y-98823871D01*
X117744491Y-98823871D02*
X117663679Y-98850808D01*
X117663679Y-98850808D02*
X117609804Y-98850808D01*
X141901435Y-63883431D02*
X141820623Y-63910368D01*
X141820623Y-63910368D02*
X141739811Y-63991180D01*
X141739811Y-63991180D02*
X141685936Y-64098930D01*
X141685936Y-64098930D02*
X141685936Y-64206680D01*
X141685936Y-64206680D02*
X141712873Y-64287492D01*
X141712873Y-64287492D02*
X141793685Y-64422179D01*
X141793685Y-64422179D02*
X141874498Y-64502991D01*
X141874498Y-64502991D02*
X142009185Y-64583803D01*
X142009185Y-64583803D02*
X142089997Y-64610741D01*
X142089997Y-64610741D02*
X142197746Y-64610741D01*
X142197746Y-64610741D02*
X142305496Y-64556866D01*
X142305496Y-64556866D02*
X142359371Y-64502991D01*
X142359371Y-64502991D02*
X142413246Y-64395241D01*
X142413246Y-64395241D02*
X142413246Y-64341367D01*
X142413246Y-64341367D02*
X142224684Y-64152805D01*
X142224684Y-64152805D02*
X142116934Y-64260554D01*
X142709557Y-64152805D02*
X142143872Y-63587119D01*
X142143872Y-63587119D02*
X143032806Y-63829556D01*
X143032806Y-63829556D02*
X142467120Y-63263871D01*
X143302180Y-63560182D02*
X142736494Y-62994497D01*
X142736494Y-62994497D02*
X142871181Y-62859810D01*
X142871181Y-62859810D02*
X142978931Y-62805935D01*
X142978931Y-62805935D02*
X143086680Y-62805935D01*
X143086680Y-62805935D02*
X143167493Y-62832872D01*
X143167493Y-62832872D02*
X143302180Y-62913685D01*
X143302180Y-62913685D02*
X143382992Y-62994497D01*
X143382992Y-62994497D02*
X143463804Y-63129184D01*
X143463804Y-63129184D02*
X143490741Y-63209996D01*
X143490741Y-63209996D02*
X143490741Y-63317746D01*
X143490741Y-63317746D02*
X143436867Y-63425495D01*
X143436867Y-63425495D02*
X143302180Y-63560182D01*
X141768406Y-59312585D02*
X142522653Y-59689709D01*
X142522653Y-59689709D02*
X142145529Y-58935462D01*
X142792027Y-58827712D02*
X142899776Y-58773838D01*
X142899776Y-58773838D02*
X142953651Y-58773838D01*
X142953651Y-58773838D02*
X143034463Y-58800775D01*
X143034463Y-58800775D02*
X143115276Y-58881587D01*
X143115276Y-58881587D02*
X143142213Y-58962399D01*
X143142213Y-58962399D02*
X143142213Y-59016274D01*
X143142213Y-59016274D02*
X143115276Y-59097086D01*
X143115276Y-59097086D02*
X142899776Y-59312586D01*
X142899776Y-59312586D02*
X142334091Y-58746900D01*
X142334091Y-58746900D02*
X142522653Y-58558338D01*
X142522653Y-58558338D02*
X142603465Y-58531401D01*
X142603465Y-58531401D02*
X142657340Y-58531401D01*
X142657340Y-58531401D02*
X142738152Y-58558338D01*
X142738152Y-58558338D02*
X142792027Y-58612213D01*
X142792027Y-58612213D02*
X142818964Y-58693025D01*
X142818964Y-58693025D02*
X142818964Y-58746900D01*
X142818964Y-58746900D02*
X142792027Y-58827712D01*
X142792027Y-58827712D02*
X142603465Y-59016274D01*
X142899776Y-58181215D02*
X143357712Y-58639151D01*
X143357712Y-58639151D02*
X143438524Y-58666088D01*
X143438524Y-58666088D02*
X143492399Y-58666088D01*
X143492399Y-58666088D02*
X143573211Y-58639151D01*
X143573211Y-58639151D02*
X143680961Y-58531401D01*
X143680961Y-58531401D02*
X143707898Y-58450589D01*
X143707898Y-58450589D02*
X143707898Y-58396714D01*
X143707898Y-58396714D02*
X143680961Y-58315902D01*
X143680961Y-58315902D02*
X143223025Y-57857966D01*
X144004210Y-58154277D02*
X144111959Y-58100403D01*
X144111959Y-58100403D02*
X144246646Y-57965716D01*
X144246646Y-57965716D02*
X144273584Y-57884903D01*
X144273584Y-57884903D02*
X144273584Y-57831029D01*
X144273584Y-57831029D02*
X144246646Y-57750216D01*
X144246646Y-57750216D02*
X144192771Y-57696342D01*
X144192771Y-57696342D02*
X144111959Y-57669404D01*
X144111959Y-57669404D02*
X144058084Y-57669404D01*
X144058084Y-57669404D02*
X143977272Y-57696342D01*
X143977272Y-57696342D02*
X143842585Y-57777154D01*
X143842585Y-57777154D02*
X143761773Y-57804091D01*
X143761773Y-57804091D02*
X143707898Y-57804091D01*
X143707898Y-57804091D02*
X143627086Y-57777154D01*
X143627086Y-57777154D02*
X143573211Y-57723279D01*
X143573211Y-57723279D02*
X143546274Y-57642467D01*
X143546274Y-57642467D02*
X143546274Y-57588592D01*
X143546274Y-57588592D02*
X143573211Y-57507780D01*
X143573211Y-57507780D02*
X143707898Y-57373093D01*
X143707898Y-57373093D02*
X143815648Y-57319218D01*
X141901435Y-101983431D02*
X141820623Y-102010368D01*
X141820623Y-102010368D02*
X141739811Y-102091180D01*
X141739811Y-102091180D02*
X141685936Y-102198930D01*
X141685936Y-102198930D02*
X141685936Y-102306680D01*
X141685936Y-102306680D02*
X141712873Y-102387492D01*
X141712873Y-102387492D02*
X141793685Y-102522179D01*
X141793685Y-102522179D02*
X141874498Y-102602991D01*
X141874498Y-102602991D02*
X142009185Y-102683803D01*
X142009185Y-102683803D02*
X142089997Y-102710741D01*
X142089997Y-102710741D02*
X142197746Y-102710741D01*
X142197746Y-102710741D02*
X142305496Y-102656866D01*
X142305496Y-102656866D02*
X142359371Y-102602991D01*
X142359371Y-102602991D02*
X142413246Y-102495241D01*
X142413246Y-102495241D02*
X142413246Y-102441367D01*
X142413246Y-102441367D02*
X142224684Y-102252805D01*
X142224684Y-102252805D02*
X142116934Y-102360554D01*
X142709557Y-102252805D02*
X142143872Y-101687119D01*
X142143872Y-101687119D02*
X143032806Y-101929556D01*
X143032806Y-101929556D02*
X142467120Y-101363871D01*
X143302180Y-101660182D02*
X142736494Y-101094497D01*
X142736494Y-101094497D02*
X142871181Y-100959810D01*
X142871181Y-100959810D02*
X142978931Y-100905935D01*
X142978931Y-100905935D02*
X143086680Y-100905935D01*
X143086680Y-100905935D02*
X143167493Y-100932872D01*
X143167493Y-100932872D02*
X143302180Y-101013685D01*
X143302180Y-101013685D02*
X143382992Y-101094497D01*
X143382992Y-101094497D02*
X143463804Y-101229184D01*
X143463804Y-101229184D02*
X143490741Y-101309996D01*
X143490741Y-101309996D02*
X143490741Y-101417746D01*
X143490741Y-101417746D02*
X143436867Y-101525495D01*
X143436867Y-101525495D02*
X143302180Y-101660182D01*
X152671873Y-81426240D02*
X152941247Y-81156866D01*
X152779623Y-81641739D02*
X152402499Y-80887492D01*
X152402499Y-80887492D02*
X153156746Y-81264615D01*
X153102871Y-80240994D02*
X153022059Y-80267932D01*
X153022059Y-80267932D02*
X152941247Y-80348744D01*
X152941247Y-80348744D02*
X152887372Y-80456494D01*
X152887372Y-80456494D02*
X152887372Y-80564243D01*
X152887372Y-80564243D02*
X152914310Y-80645055D01*
X152914310Y-80645055D02*
X152995122Y-80779742D01*
X152995122Y-80779742D02*
X153075934Y-80860555D01*
X153075934Y-80860555D02*
X153210621Y-80941367D01*
X153210621Y-80941367D02*
X153291433Y-80968304D01*
X153291433Y-80968304D02*
X153399183Y-80968304D01*
X153399183Y-80968304D02*
X153506932Y-80914429D01*
X153506932Y-80914429D02*
X153560807Y-80860555D01*
X153560807Y-80860555D02*
X153614682Y-80752805D01*
X153614682Y-80752805D02*
X153614682Y-80698930D01*
X153614682Y-80698930D02*
X153426120Y-80510368D01*
X153426120Y-80510368D02*
X153318371Y-80618118D01*
X153910993Y-80510368D02*
X153345308Y-79944683D01*
X153345308Y-79944683D02*
X154234242Y-80187120D01*
X154234242Y-80187120D02*
X153668557Y-79621434D01*
X154503616Y-79917746D02*
X153937931Y-79352060D01*
X153937931Y-79352060D02*
X154072618Y-79217373D01*
X154072618Y-79217373D02*
X154180367Y-79163498D01*
X154180367Y-79163498D02*
X154288117Y-79163498D01*
X154288117Y-79163498D02*
X154368929Y-79190436D01*
X154368929Y-79190436D02*
X154503616Y-79271248D01*
X154503616Y-79271248D02*
X154584428Y-79352060D01*
X154584428Y-79352060D02*
X154665241Y-79486747D01*
X154665241Y-79486747D02*
X154692178Y-79567560D01*
X154692178Y-79567560D02*
X154692178Y-79675309D01*
X154692178Y-79675309D02*
X154638303Y-79783059D01*
X154638303Y-79783059D02*
X154503616Y-79917746D01*
X115658998Y-94605868D02*
X115578185Y-94632805D01*
X115578185Y-94632805D02*
X115497373Y-94713618D01*
X115497373Y-94713618D02*
X115443498Y-94821367D01*
X115443498Y-94821367D02*
X115443498Y-94929117D01*
X115443498Y-94929117D02*
X115470436Y-95009929D01*
X115470436Y-95009929D02*
X115551248Y-95144616D01*
X115551248Y-95144616D02*
X115632060Y-95225428D01*
X115632060Y-95225428D02*
X115766747Y-95306241D01*
X115766747Y-95306241D02*
X115847560Y-95333178D01*
X115847560Y-95333178D02*
X115955309Y-95333178D01*
X115955309Y-95333178D02*
X116063059Y-95279303D01*
X116063059Y-95279303D02*
X116116934Y-95225428D01*
X116116934Y-95225428D02*
X116170808Y-95117679D01*
X116170808Y-95117679D02*
X116170808Y-95063804D01*
X116170808Y-95063804D02*
X115982247Y-94875242D01*
X115982247Y-94875242D02*
X115874497Y-94982992D01*
X116467120Y-94875242D02*
X115901434Y-94309557D01*
X115901434Y-94309557D02*
X116116934Y-94094057D01*
X116116934Y-94094057D02*
X116197746Y-94067120D01*
X116197746Y-94067120D02*
X116251621Y-94067120D01*
X116251621Y-94067120D02*
X116332433Y-94094057D01*
X116332433Y-94094057D02*
X116413245Y-94174870D01*
X116413245Y-94174870D02*
X116440182Y-94255682D01*
X116440182Y-94255682D02*
X116440182Y-94309557D01*
X116440182Y-94309557D02*
X116413245Y-94390369D01*
X116413245Y-94390369D02*
X116197746Y-94605868D01*
X117329117Y-94013245D02*
X117005868Y-94336494D01*
X117167492Y-94174870D02*
X116601807Y-93609184D01*
X116601807Y-93609184D02*
X116628744Y-93743871D01*
X116628744Y-93743871D02*
X116628744Y-93851621D01*
X116628744Y-93851621D02*
X116601807Y-93932433D01*
X117867865Y-93474497D02*
X117544616Y-93797746D01*
X117706240Y-93636121D02*
X117140555Y-93070436D01*
X117140555Y-93070436D02*
X117167492Y-93205123D01*
X117167492Y-93205123D02*
X117167492Y-93312873D01*
X117167492Y-93312873D02*
X117140555Y-93393685D01*
X147084819Y-91641666D02*
X146608628Y-91974999D01*
X147084819Y-92213094D02*
X146084819Y-92213094D01*
X146084819Y-92213094D02*
X146084819Y-91832142D01*
X146084819Y-91832142D02*
X146132438Y-91736904D01*
X146132438Y-91736904D02*
X146180057Y-91689285D01*
X146180057Y-91689285D02*
X146275295Y-91641666D01*
X146275295Y-91641666D02*
X146418152Y-91641666D01*
X146418152Y-91641666D02*
X146513390Y-91689285D01*
X146513390Y-91689285D02*
X146561009Y-91736904D01*
X146561009Y-91736904D02*
X146608628Y-91832142D01*
X146608628Y-91832142D02*
X146608628Y-92213094D01*
X147084819Y-90689285D02*
X147084819Y-91260713D01*
X147084819Y-90974999D02*
X146084819Y-90974999D01*
X146084819Y-90974999D02*
X146227676Y-91070237D01*
X146227676Y-91070237D02*
X146322914Y-91165475D01*
X146322914Y-91165475D02*
X146370533Y-91260713D01*
X169669166Y-45624819D02*
X169669166Y-46339104D01*
X169669166Y-46339104D02*
X169621547Y-46481961D01*
X169621547Y-46481961D02*
X169526309Y-46577200D01*
X169526309Y-46577200D02*
X169383452Y-46624819D01*
X169383452Y-46624819D02*
X169288214Y-46624819D01*
X170669166Y-46624819D02*
X170097738Y-46624819D01*
X170383452Y-46624819D02*
X170383452Y-45624819D01*
X170383452Y-45624819D02*
X170288214Y-45767676D01*
X170288214Y-45767676D02*
X170192976Y-45862914D01*
X170192976Y-45862914D02*
X170097738Y-45910533D01*
X173531905Y-83894819D02*
X173531905Y-82894819D01*
X173531905Y-82894819D02*
X173770000Y-82894819D01*
X173770000Y-82894819D02*
X173912857Y-82942438D01*
X173912857Y-82942438D02*
X174008095Y-83037676D01*
X174008095Y-83037676D02*
X174055714Y-83132914D01*
X174055714Y-83132914D02*
X174103333Y-83323390D01*
X174103333Y-83323390D02*
X174103333Y-83466247D01*
X174103333Y-83466247D02*
X174055714Y-83656723D01*
X174055714Y-83656723D02*
X174008095Y-83751961D01*
X174008095Y-83751961D02*
X173912857Y-83847200D01*
X173912857Y-83847200D02*
X173770000Y-83894819D01*
X173770000Y-83894819D02*
X173531905Y-83894819D01*
X175055714Y-83894819D02*
X174484286Y-83894819D01*
X174770000Y-83894819D02*
X174770000Y-82894819D01*
X174770000Y-82894819D02*
X174674762Y-83037676D01*
X174674762Y-83037676D02*
X174579524Y-83132914D01*
X174579524Y-83132914D02*
X174484286Y-83180533D01*
D11*
%TO.C,R2*%
X181085000Y-39500000D02*
X184835000Y-39500000D01*
X181085000Y-39500000D02*
G75*
G02*
X176345000Y-39500000I-2370000J0D01*
G01*
X176345000Y-39500000D02*
G75*
G02*
X181085000Y-39500000I2370000J0D01*
G01*
%TO.C,Q1*%
X169120000Y-72370000D02*
X169120000Y-68880000D01*
X169120000Y-72370000D02*
X160880000Y-72370000D01*
X169120000Y-68880000D02*
X160880000Y-68880000D01*
X166600000Y-72370000D02*
X166600000Y-71300000D01*
X166600000Y-69200000D02*
X166600000Y-68880000D01*
X163399000Y-72370000D02*
X163399000Y-70790000D01*
X163399000Y-69710000D02*
X163399000Y-68880000D01*
X160880000Y-72370000D02*
X160880000Y-68880000D01*
%TO.C,U2*%
X140315000Y-108285000D02*
X133515000Y-108285000D01*
X140315000Y-105485000D02*
X140315000Y-105885000D01*
X140315000Y-102885000D02*
X140315000Y-103285000D01*
X140315000Y-100385000D02*
X140315000Y-100785000D01*
X140315000Y-97885000D02*
X140315000Y-98285000D01*
X140315000Y-95285000D02*
X140315000Y-95685000D01*
X140315000Y-92785000D02*
X140315000Y-93185000D01*
X140315000Y-90185000D02*
X140315000Y-90585000D01*
X140315000Y-87685000D02*
X140315000Y-88085000D01*
X140315000Y-85085000D02*
X140315000Y-85485000D01*
X140315000Y-82585000D02*
X140315000Y-82985000D01*
X140315000Y-80085000D02*
X140315000Y-80485000D01*
X140315000Y-77485000D02*
X140315000Y-77885000D01*
X140315000Y-74985000D02*
X140315000Y-75385000D01*
X140315000Y-72385000D02*
X140315000Y-72785000D01*
X140315000Y-69885000D02*
X140315000Y-70285000D01*
X140315000Y-67385000D02*
X140315000Y-67785000D01*
X140315000Y-64785000D02*
X140315000Y-65185000D01*
X140315000Y-62285000D02*
X140315000Y-62685000D01*
X140315000Y-59685000D02*
X140315000Y-60085000D01*
X140315000Y-57285000D02*
X140315000Y-57585000D01*
X130915000Y-108285000D02*
X131315000Y-108285000D01*
X128315000Y-108285000D02*
X128715000Y-108285000D01*
X126115000Y-108285000D02*
X119315000Y-108285000D01*
X122322000Y-59952000D02*
X122322000Y-57285000D01*
X119315000Y-105485000D02*
X119315000Y-105885000D01*
X119315000Y-102885000D02*
X119315000Y-103285000D01*
X119315000Y-100385000D02*
X119315000Y-100785000D01*
X119315000Y-97885000D02*
X119315000Y-98285000D01*
X119315000Y-95285000D02*
X119315000Y-95685000D01*
X119315000Y-92785000D02*
X119315000Y-93185000D01*
X119315000Y-90185000D02*
X119315000Y-90585000D01*
X119315000Y-87685000D02*
X119315000Y-88085000D01*
X119315000Y-85085000D02*
X119315000Y-85485000D01*
X119315000Y-82585000D02*
X119315000Y-82985000D01*
X119315000Y-80085000D02*
X119315000Y-80485000D01*
X119315000Y-77485000D02*
X119315000Y-77885000D01*
X119315000Y-74985000D02*
X119315000Y-75385000D01*
X119315000Y-72385000D02*
X119315000Y-72785000D01*
X119315000Y-69885000D02*
X119315000Y-70285000D01*
X119315000Y-67385000D02*
X119315000Y-67785000D01*
X119315000Y-64785000D02*
X119315000Y-65185000D01*
X119315000Y-62285000D02*
X119315000Y-62685000D01*
X119315000Y-59952000D02*
X122322000Y-59952000D01*
X119315000Y-59685000D02*
X119315000Y-60085000D01*
X119315000Y-57285000D02*
X140315000Y-57285000D01*
X119315000Y-57285000D02*
X119315000Y-57585000D01*
%TO.C,R1*%
X152370000Y-95285000D02*
G75*
G02*
X147630000Y-95285000I-2370000J0D01*
G01*
X147630000Y-95285000D02*
G75*
G02*
X152370000Y-95285000I2370000J0D01*
G01*
X150000000Y-92915000D02*
X150000000Y-89165000D01*
%TO.C,J1*%
X174062500Y-56080000D02*
X174062500Y-51250000D01*
X174062500Y-49340000D02*
X174062500Y-51250000D01*
X172792500Y-49340000D02*
X172792500Y-47950000D01*
X170382500Y-56080000D02*
X174062500Y-56080000D01*
X170382500Y-55820000D02*
X170382500Y-56080000D01*
X169612500Y-56080000D02*
X169612500Y-55820000D01*
X169612500Y-56080000D02*
X165932500Y-56080000D01*
X169612500Y-55820000D02*
X170382500Y-55820000D01*
X167202500Y-49340000D02*
X167202500Y-47950000D01*
X167202500Y-49090000D02*
X172792500Y-49090000D01*
X167202500Y-48200000D02*
X172792500Y-48200000D01*
X167202500Y-47950000D02*
X172792500Y-47950000D01*
X166892500Y-49050000D02*
X165592500Y-49050000D01*
X165932500Y-51250000D02*
X165932500Y-56080000D01*
X165932500Y-49340000D02*
X174062500Y-49340000D01*
X165932500Y-49340000D02*
X165932500Y-51250000D01*
X165592500Y-49050000D02*
X165592500Y-51250000D01*
%TO.C,D1*%
X169210000Y-87624000D02*
X169210000Y-92376000D01*
X169210000Y-87624184D02*
G75*
G02*
X179859998Y-89995259I5060000J-2375816D01*
G01*
X179859998Y-90004741D02*
G75*
G02*
X169210000Y-92375816I-5589998J4741D01*
G01*
X179270000Y-90000000D02*
G75*
G02*
X169270000Y-90000000I-5000000J0D01*
G01*
X169270000Y-90000000D02*
G75*
G02*
X179270000Y-90000000I5000000J0D01*
G01*
%TD*%
M02*
