%TF.GenerationSoftware,KiCad,Pcbnew,8.0.0*%
%TF.CreationDate,2024-03-27T17:07:57-03:00*%
%TF.ProjectId,primeiro,7072696d-6569-4726-9f2e-6b696361645f,rev?*%
%TF.SameCoordinates,Original*%
%TF.FileFunction,Soldermask,Bot*%
%TF.FilePolarity,Negative*%
%FSLAX46Y46*%
G04 Gerber Fmt 4.6, Leading zero omitted, Abs format (unit mm)*
G04 Created by KiCad (PCBNEW 8.0.0) date 2024-03-27 17:07:57*
%MOMM*%
%LPD*%
G01*
G04 APERTURE LIST*
%ADD10C,2.400000*%
%ADD11O,2.400000X2.400000*%
%ADD12R,1.800000X1.800000*%
%ADD13O,1.800000X1.800000*%
%ADD14O,1.700000X1.700000*%
%ADD15R,1.700000X1.700000*%
%ADD16O,1.500000X1.500000*%
%ADD17C,3.000000*%
%ADD18R,3.000000X3.000000*%
%ADD19C,1.800000*%
G04 APERTURE END LIST*
D10*
%TO.C,R2*%
X178715000Y-39500000D03*
D11*
X186335000Y-39500000D03*
%TD*%
D12*
%TO.C,Q1*%
X167540000Y-70250000D03*
D13*
X165000000Y-70250000D03*
X162460000Y-70250000D03*
%TD*%
D14*
%TO.C,U2*%
X132355000Y-106685000D03*
D15*
X129815000Y-106685000D03*
D14*
X127275000Y-106685000D03*
X138705000Y-58655000D03*
X138705000Y-61195000D03*
D15*
X138705000Y-63735000D03*
D14*
X138705000Y-66275000D03*
X138705000Y-68815000D03*
X138705000Y-71355000D03*
X138705000Y-73895000D03*
D15*
X138705000Y-76435000D03*
D14*
X138705000Y-78975000D03*
X138705000Y-81515000D03*
X138705000Y-84055000D03*
X138705000Y-86595000D03*
D15*
X138705000Y-89135000D03*
D14*
X138705000Y-91675000D03*
X138705000Y-94215000D03*
X138705000Y-96755000D03*
X138705000Y-99295000D03*
D15*
X138705000Y-101835000D03*
D14*
X138705000Y-104375000D03*
X138705000Y-106915000D03*
X120925000Y-106915000D03*
X120925000Y-104375000D03*
D15*
X120925000Y-101835000D03*
D14*
X120925000Y-99295000D03*
X120925000Y-96755000D03*
X120925000Y-94215000D03*
X120925000Y-91675000D03*
D15*
X120925000Y-89135000D03*
D14*
X120925000Y-86595000D03*
X120925000Y-84055000D03*
X120925000Y-81515000D03*
X120925000Y-78975000D03*
D15*
X120925000Y-76435000D03*
D14*
X120925000Y-73895000D03*
X120925000Y-71355000D03*
X120925000Y-68815000D03*
X120925000Y-66275000D03*
D15*
X120925000Y-63735000D03*
D14*
X120925000Y-61195000D03*
X120925000Y-58655000D03*
D13*
X132540000Y-58785000D03*
D16*
X132240000Y-61815000D03*
X127390000Y-61815000D03*
D13*
X127090000Y-58785000D03*
%TD*%
D11*
%TO.C,R1*%
X150000000Y-87665000D03*
D10*
X150000000Y-95285000D03*
%TD*%
D17*
%TO.C,J1*%
X171972500Y-51250000D03*
D18*
X168092500Y-51250000D03*
%TD*%
D12*
%TO.C,D1*%
X173000000Y-90000000D03*
D19*
X175540000Y-90000000D03*
%TD*%
M02*
